<?xml version="1.0" encoding="utf-8"?>
<!-- Generator: Adobe Illustrator 25.2.1, SVG Export Plug-In . SVG Version: 6.00 Build 0)  -->
<svg version="1.1" id="Layer_1" xmlns="http://www.w3.org/2000/svg" xmlns:xlink="http://www.w3.org/1999/xlink" x="0px" y="0px"
	 viewBox="0 0 152.5 151.1" style="enable-background:new 0 0 152.5 151.1;" xml:space="preserve">
<style type="text/css">
	.st0{fill:none;}
	.st1{fill-rule:evenodd;clip-rule:evenodd;}
	.st2{fill:#FFDD15;}
	.st3{fill:#E52D35;stroke:#000000;stroke-width:7.11;stroke-miterlimit:10;}
	.st4{fill:#FC6595;}
	.st5{fill:#371FAD;}
	.st6{fill:#25B1BC;}
	.st7{fill:#E52D35;}
	.st8{fill:url(#SVGID_1_);}
	.st9{fill:#58EDCD;}
	.st10{fill:url(#SVGID_2_);}
	.st11{fill:#FFFFFF;}
	.st12{fill:url(#SVGID_3_);}
	.st13{fill:none;stroke:#000000;stroke-width:7.11;stroke-miterlimit:10;}
	.st14{fill:#58EDCD;stroke:#000000;stroke-width:7.11;stroke-miterlimit:10;}
	.st15{fill:#FC6595;stroke:#000000;stroke-width:7.11;stroke-miterlimit:10;}
	.st16{fill:none;stroke:#000000;stroke-width:7.2295;stroke-miterlimit:10;}
</style>
<pattern  y="151.1" width="5.4" height="5.4" patternUnits="userSpaceOnUse" id="Small_Dots" viewBox="0 -5.4 5.4 5.4" style="overflow:visible;">
	<g>
		<rect y="-5.4" class="st0" width="5.4" height="5.4"/>
		<rect y="-5.4" class="st0" width="5.4" height="5.4"/>
		<circle cx="2.7" cy="-2.7" r="1.8"/>
	</g>
</pattern>
<pattern  y="151.1" width="241.8" height="241.8" patternUnits="userSpaceOnUse" id="chetaish" viewBox="0 -241.9 241.8 241.8" style="overflow:visible;">
	<g>
		<rect y="-241.9" class="st0" width="241.8" height="241.8"/>
		<rect y="-241.9" class="st0" width="241.8" height="241.8"/>
		<path class="st1" d="M75.3-119.7c-0.5-0.4-0.9-0.8-1.2-1.3h3.3C77.8-120.1,76.4-118.8,75.3-119.7z"/>
		<path class="st1" d="M6.5-118.9c-0.9-0.4-1.7-1.1-2-2.1h3.1C8.4-120.2,7.8-118.4,6.5-118.9z"/>
		<path class="st1" d="M12.4-121h0.4C12.6-120.9,12.5-120.9,12.4-121z"/>
		<path class="st1" d="M120.9-120.9v1c-0.2,0.6-0.9,0.9-1.5,0.7c-0.2-0.1-0.3-0.2-0.4-0.3c-0.3-0.3-0.9-0.9-1.4-0.8
			c-0.1,0-0.4,0.2-0.3,0.3c0.7,1.4-1.4,2.6-2.1,1.2c-0.3-0.7-0.4-1.5-0.1-2.2C115-120.9,120.9-120.9,120.9-120.9z"/>
		<path class="st1" d="M23.5-120.6c0.9,1.3-1.2,2.5-2.1,1.2c-0.3-0.5-0.6-1-0.8-1.6h2.7L23.5-120.6z"/>
		<path class="st1" d="M26.3-121h1.4C27.3-120.7,26.7-120.7,26.3-121z"/>
		<path class="st1" d="M0-120v-1C0.2-120.6,0.2-120.3,0-120z"/>
		<path class="st1" d="M120.9-109.1v0.9C120.8-108.5,120.8-108.8,120.9-109.1z"/>
		<path class="st1" d="M120.9-106.1v2.7c-0.3-0.1-0.5-0.3-0.8-0.4c-0.6-0.4-0.7-1.1-0.4-1.7C120-105.9,120.4-106.1,120.9-106.1z"/>
		<path class="st1" d="M19.3-15.7c1.5,0.3,0.9,2.7-0.6,2.3c-2.1-0.4-4.6-1.4-5-3.8s1.6-4.4,3.8-4.9c1.8-0.4,5.5-0.8,6,1.6
			s-2.2,4.1-4.3,4.3c-1.5,0.1-1.5-2.3,0-2.4c0.5,0,1.1-0.2,1.4-0.6c0.5-0.7,0.2-0.5-0.3-0.7c-1.2-0.2-2.4,0-3.5,0.7
			c-0.9,0.6-1.2,1.6-0.3,2.4C17.3-16.1,18.3-15.8,19.3-15.7z"/>
		<path class="st1" d="M30.1-12.9c1.5,0.2,1.5,2.6,0,2.4c-1.5-0.1-2.7-1.3-2.9-2.8c-0.1-1.6,1-3.1,2.5-3.7c2-0.8,4.2,0.1,5,2.1
			c0.4,1,0.4,2.1,0,3c-0.6,1.4-2.7,0.2-2.1-1.2c0.5-1.1-0.8-1.9-1.7-1.8c-0.5,0.1-1,0.4-1.2,0.8C29.6-13.6,29.6-13,30.1-12.9z"/>
		<path class="st1" d="M77-0.5c0.2,0.1,0.3,0.2,0.4,0.4h-3.3c-0.8-1-1.1-2.3-1.1-3.6c0.1-1.9,1.6-3.4,3.4-3.4
			c2.9-0.1,8.3,4.2,4.6,6.8c-1.3,0.9-2.5-1.2-1.2-2.1C80.2-2.7,78.4-4,78.3-4c-0.6-0.5-1.5-0.7-2.3-0.5C74.2-3.7,76.2-1.2,77-0.5z"
			/>
		<path class="st1" d="M63.8-20.4c-1.5,0.2-1.5-2.2,0-2.4c1.5-0.2,3.6-0.1,4.6,1.1c0.8,1.1,0.7,2.7-0.1,3.8c-1.4,1.9-4,2.3-6,1
			c-0.4-0.3-0.8-0.7-1.1-1.2c-0.9-1.3,1.2-2.5,2.1-1.2c0.6,0.8,1.7,1.1,2.5,0.5c0.1-0.1,0.2-0.2,0.3-0.3
			C67.5-20.7,64.7-20.5,63.8-20.4z"/>
		<path class="st1" d="M46.6-41.2c1.9-1.1,4.3-1,6.2,0.2c1.9,1.2,2.7,3.4,1.2,5.3c-1,1.2-2.7-0.5-1.7-1.7c0.8-1-1.7-2-2.2-2
			c-1-0.2-2,0.1-2.7,0.8c-1.4,1.4-0.8,3.9,1.3,3.9c0.7,0,1.2,0.5,1.2,1.2c0,0.7-0.5,1.2-1.2,1.2C43.8-32.5,42.7-38.8,46.6-41.2z"/>
		<path class="st1" d="M60.3-35.4c-0.9-1.2,1.2-2.4,2.1-1.2c0.7,0.8,1.9,0.9,2.8,0.3c0.4-0.3,0.8-0.7,1-1.1c0.5-0.8-0.2-0.4-0.7-0.2
			c-1.4,0.7-2.6-1.4-1.2-2.1c1.4-0.7,3.1-1.1,4.2,0.3c0.9,1.2,0.2,2.8-0.7,3.9c-1.5,2.1-4.4,2.5-6.5,1
			C60.9-34.8,60.6-35.1,60.3-35.4z"/>
		<path class="st1" d="M86.8-23.2c-2.2-1.9-1.2-5.6,1.4-6.4s7,1.2,5.8,4.5c-0.5,1.5-2.8,0.8-2.3-0.6c0.5-1.3-2-1.9-2.9-1.5
			c-0.7,0.3-1.1,1.1-0.8,1.8c0.1,0.2,0.2,0.4,0.4,0.6C89.7-23.9,88-22.2,86.8-23.2z"/>
		<path class="st1" d="M97.8-13.7L97-13.6c-0.5,0-0.9-0.3-1.1-0.7c-0.2,0.2-0.4,0.4-0.4,0.7c-0.2,0.6-0.8,1-1.5,0.9
			c-0.6-0.2-1-0.8-0.8-1.5c0.3-1.7,2-2.8,3.7-2.5c0.7,0.1,1.3,0.5,1.8,1c0.5,0.5,0.4,1.3-0.1,1.7C98.4-13.8,98.1-13.7,97.8-13.7z"/>
		<path class="st1" d="M21.5-38.7c-1.8,0.4-0.8,2.1,0.1,2.9c1.2,1-0.5,2.7-1.7,1.7c-2.5-2-2.6-6.1,1-7c2.4-0.6,4.9,0.8,5.6,3.2
			c0.2,0.8,0.2,1.5,0,2.3c-0.2,0.6-0.9,1-1.5,0.8c-0.6-0.2-1-0.8-0.8-1.4c0.3-1.1-0.5-2.3-1.6-2.6C22.2-38.8,21.8-38.8,21.5-38.7z"
			/>
		<path class="st1" d="M33.8-26.5c-1.7,0.8-3.9,0.3-4.6-1.6c-0.5-1.5,1.8-2.1,2.3-0.6c0.1,0.2,0.7,0.2,0.8,0.2
			c0.2,0,0.4-0.1,0.6-0.2c-0.6-0.4-0.7-1.1-0.3-1.7c0.3-0.4,0.8-0.6,1.3-0.5c1,0.2,1.7,1.2,1.6,2.2C35.5-27.8,34.8-26.9,33.8-26.5z"
			/>
		<path class="st1" d="M42.8-49.3c1.2,1-0.5,2.7-1.7,1.7c-1.5-1.3-2.8-3-2.8-5c0-1.8,1.2-3.3,2.9-3.7c3.6-0.9,7.9,3.2,5,6.5
			c-1,1.2-2.7-0.5-1.7-1.7c1.3-1.5-2.2-3.3-3.4-2.1C39.7-52.3,41.8-50.2,42.8-49.3z"/>
		<path class="st1" d="M26.6-62.4c-0.5-0.5-4-2.8-4.5-1.3c-0.5,1.4-2.8,0.8-2.3-0.6c1.5-4.7,9.7-0.9,10,2.8c0.4,4.8-9.2,5.2-8.6,0.5
			c0.2-1.5,2.5-0.9,2.3,0.6c0,0.2,2.3,0.2,2.6,0.2c0.5,0,0.9-0.3,1.1-0.7C27.5-61.6,27-61.9,26.6-62.4z"/>
		<path class="st1" d="M10.2-77.8c1.5-0.3,3.4-0.1,4.3,1.3c0.8,1.3,0.4,3-0.8,3.8c0,0,0,0,0,0c-1.4,0.7-2.6-1.3-1.2-2.1
			c0.1-0.1,0.1-0.3,0-0.5c-0.4-0.4-1.3-0.2-1.8-0.1C9-74.9,9.8-73.5,11-73.1c1.4,0.5,0.8,2.9-0.6,2.3c-1.6-0.4-2.8-1.8-3.1-3.5
			C7.2-76,8.5-77.5,10.2-77.8z"/>
		<path class="st1" d="M31.7-79.7c1.5,0,2.9,0.9,3.5,2.3c0.5,1.3,0,2.9-1.2,3.6c-0.6,0.3-1.3,0.1-1.7-0.4s-0.1-1.3,0.4-1.7l0,0
			c1-0.6-0.9-1.4-1.4-1.4c-1.4,0.1-0.2,2,0.4,2.4c1.2,1-0.5,2.7-1.7,1.7c-1.2-1-1.8-2.5-1.7-4C28.6-78.8,30.1-79.9,31.7-79.7
			C31.7-79.7,31.7-79.7,31.7-79.7z"/>
		<path class="st1" d="M61.9-63.1c0.8,1.1,0.6,2.6-0.5,3.4c-0.4,0.3-0.8,0.4-1.3,0.5c-1.5,0.1-1.5-2.2-0.1-2.4l0,0
			c-0.1-0.1-0.2-0.3-0.3-0.4c-0.2-0.1-0.3-0.2-0.5-0.3c-0.5-0.2-1-0.2-1.5,0c-0.5,0.3-0.8,1.4-0.2,1.7c0.6,0.2,1,0.8,0.8,1.5
			c-0.2,0.6-0.8,1-1.5,0.8c-1.7-0.7-2.6-2.8-1.8-4.5c0.5-1.1,1.4-1.8,2.6-2C59.3-65.2,61-64.5,61.9-63.1z"/>
		<path class="st1" d="M73.4-51.1c0.6-0.3,1.3-0.1,1.6,0.4c0.2,0.3,0.2,0.6,0.1,0.9l0.1,0.1l0.3,0.3c0.2,0.3,0.5,0.6,0.8,0.8
			c0.6,0.5,1.6,0.4,2.1-0.2c0.6-0.8,0.8-3-0.2-3.5c-1.4-0.7-0.2-2.8,1.2-2.1c2.8,1.5,2.3,6.9-0.5,8.2c-1.7,0.7-3.6,0.2-4.8-1.1
			C73.2-48.1,71.8-50.1,73.4-51.1z"/>
		<path class="st1" d="M98.7-43.2c0.3,1.6-0.7,3.2-2.2,3.6c-0.6,0.2-1.3-0.2-1.5-0.8c-0.2-0.6,0.2-1.3,0.8-1.5
			c1.2-0.3,0.1-1.8-1-1.3c-1.6,0.7-0.9,2.8-0.1,3.8c1,1.2-0.7,2.9-1.7,1.7c-1.3-1.4-1.8-3.4-1.3-5.3c0.5-1.6,2-2.7,3.7-2.8
			C97-45.8,98.3-44.7,98.7-43.2z"/>
		<path class="st1" d="M99.2-3.8c-0.9-1.4-0.5-3.3,1-4.2c0.3-0.2,0.6-0.3,0.9-0.4c1.4-0.3,2.8,0.7,3,2.1c0.1,0.5,0,1.1-0.2,1.6
			c-0.3,0.6-1.1,0.8-1.6,0.5c-0.6-0.3-0.8-1.1-0.5-1.6l0,0c0.1,0.1-0.1-0.2,0-0.1c-0.1-0.2-0.1-0.1,0,0c-0.1,0-0.2,0-0.2,0
			c-0.1,0.1-0.2,0.2-0.3,0.3c-0.1,0.2,0,0.5,0.1,0.7C102-3.7,99.9-2.5,99.2-3.8z"/>
		<path class="st1" d="M107.2-25.1c0.1-0.2,0.3-0.3,0.5-0.3c0.2,0.1,0.3,0.3,0.3,0.5c0,0.2,0,0.3,0,0.5h-0.1
			c-0.3,0.1-0.6-0.1-0.7-0.4C107.2-24.8,107.2-25,107.2-25.1L107.2-25.1z M109.7-23.4c0.3-0.1,0.6-0.4,0.6-0.8
			c0.3-1.4-0.4-2.8-1.7-3.4c-1.3-0.5-2.7,0-3.4,1.1c-0.7,1.1-0.6,2.6,0.4,3.6c1,0.9,2.4,1.1,3.6,0.6
			C109.6-22.5,109.8-22.9,109.7-23.4L109.7-23.4z"/>
		<path class="st1" d="M53.8-8.8c0.7-0.1,1.3,0.3,1.4,0.9c0.1,0.6-0.2,1.2-0.8,1.4c-2.2,0.7-3.8-1.9-2.8-3.7c1.3-2.3,4.1-1.7,6-0.8
			c0.6,0.3,0.8,1.1,0.4,1.6c-0.3,0.6-1.1,0.8-1.7,0.4c-0.7-0.4-1.5-0.6-2.3-0.4C54-9.2,53.6-8.7,53.8-8.8z"/>
		<path class="st1" d="M46-24.8c0-0.7,0.5-1.2,1.2-1.2c1-0.2,2.1,0,3,0.4c0.8,0.5,1.3,1.3,1.4,2.2c0.1,0.9-0.3,1.7-1,2.2
			c-1.1,0.5-2.3,0.3-3.2-0.5c-0.6-0.3-0.8-1.1-0.4-1.7c0.1-0.1,0.1-0.2,0.2-0.2C46.5-23.6,46-24.1,46-24.8z"/>
		<path class="st1" d="M2.8-39.2c0.2-0.7,0.8-1.1,1.5-0.9c0.6,0.3,1.3,0.3,1.9,0h0.1c-0.3-0.1-0.5-0.1-0.8-0.2
			c-1.5-0.1-1.6-2.5,0-2.4c1,0,1.9,0.3,2.7,0.9C8.8-41,9-40,8.6-39.1c-0.9,1.6-3.3,2-4.9,1.4C3-37.9,2.6-38.5,2.8-39.2z"/>
		<path class="st1" d="M53.8-93.7c1.6-1.2,3.8-0.9,4.9,0.7c0.5,0.7,0.8,1.5,0.7,2.3c-0.1,1.5-2.5,1.6-2.4,0c0.1-1-0.9-1.8-1.8-1.1
			c-0.5,0.5-0.6,1.2-0.1,1.8c0.2,0.2,0.4,0.3,0.6,0.4c1.5,0.5,0.8,2.8-0.6,2.3c-2-0.5-3.1-2.6-2.6-4.5
			C52.8-92.5,53.2-93.2,53.8-93.7z"/>
		<path class="st1" d="M70.6-73.6c-1,1.2-2.8-0.6-1.7-1.7c-0.2,0.2-0.3,0-0.6,0c-0.3-0.1-0.5-0.1-0.8-0.1c-0.5-0.1-1,0.1-1.4,0.3
			c-1.1,1.2,1.4,2,2.1,2.1c1.5,0.3,0.9,2.6-0.7,2.3c-1.7-0.2-3.2-1.3-3.8-2.8c-0.5-1.5,0.1-3.2,1.6-3.9c1.4-0.6,3-0.6,4.4,0
			c1.2,0.5,1.8,1.9,1.4,3.1C70.9-74,70.8-73.8,70.6-73.6z"/>
		<path class="st1" d="M93.1-68c-0.6,1-1.5,1.7-2.6,1.9c-2.2,0.5-4.5-0.7-5.3-2.9c-0.6-1.4,1.7-2.1,2.3-0.6c0.4,1,1.5,1.5,2.5,1.1
			c0.1,0,0.2-0.1,0.3-0.1c-1.2-0.8,0-2.7,1.3-2C92.5-70.2,93.6-69.1,93.1-68z"/>
		<path class="st1" d="M99.3-85.3c0.7-0.6,1.6-0.8,2.5-0.3c0.4,0.2,2.3,1.7,1,2c-0.3,0.1-0.5,0.2-0.7,0.4c-0.4-0.2-1-0.2-1.3,0.2
			c-0.6,0.4-1.3,0.3-1.8-0.3C98.7-84,98.8-84.8,99.3-85.3L99.3-85.3z M98.1-87.4c-1.8,1.3-2.3,3.9-1,5.7c0,0,0,0,0,0
			c1.3,1.6,3.7,1.8,5.3,0.4c0,0,0,0,0,0c0,0,0.1,0,0.1-0.1c0.3,0.1,0.6,0.2,0.8,0.1c2.7-0.6,2.6-3.8,1-5.5
			C102.8-88.5,100.1-88.8,98.1-87.4z"/>
		<path class="st1" d="M96.3-100.2c-0.8,0.1-1-0.8-0.2-1.1c0.5-0.2,1.7,0.5,1.4,0.8c-0.2,0.2-0.3,0.4-0.3,0.6
			C96.9-100.1,96.6-100.2,96.3-100.2z M93.2-100.1c0.3,1.4,1.6,2.4,3.1,2.3c0.6,0,1.1-0.4,1.2-1c0.4,0.5,1.1,0.5,1.6,0c0,0,0,0,0,0
			c1-1.1,0.9-2.8-0.1-3.9c-1-1.1-2.6-1.5-4-0.9C93.7-102.9,93-101.5,93.2-100.1z"/>
		<path class="st1" d="M33.6-107.7c0.2,1.6-0.9,3-2.5,3.2c-0.3,0-0.7,0-1,0c-0.6-0.2-1-0.9-0.8-1.5c0.2-0.6,0.8-0.9,1.4-0.8
			c0.8,0.2,0.3-0.9,0-1.2c-0.6-0.4-1.3-0.4-2-0.2c-0.7,0.1-1.3,0.6-1.5,1.3c-0.2,0.6,0,1.2,0.6,1.6c1.4,0.6,0.8,2.9-0.6,2.3
			c-1.8-0.7-2.8-2.7-2.2-4.5c0.7-1.9,2.5-3.2,4.6-3.1C31.3-110.8,33.4-109.7,33.6-107.7z"/>
		<path class="st1" d="M16.2-99.4c1.7,0.2,3.1,1.4,3.5,3.1c0.2,1.6-0.8,3.1-2.3,3.5c-1.5,0.3-2.2-2-0.6-2.3c0.4,0,0.7-0.4,0.6-0.8
			c0,0,0-0.1,0-0.1c-0.2-0.6-0.8-0.9-1.4-1c-0.6-0.1-1.1,0.1-1.5,0.4c-0.2,0.3-0.2,0.7,0.1,0.9c0,0,0,0,0,0c0.6,0.3,0.8,1.1,0.4,1.7
			c-0.3,0.6-1.1,0.8-1.7,0.4l0,0c-1.3-0.8-1.8-2.5-1.2-3.9C12.9-98.9,14.6-99.7,16.2-99.4z"/>
		<path class="st1" d="M103.6-55c-0.7-1.3-0.2-3,1.2-3.7c2.1-1.2,4.8-0.4,5.9,1.7c0.1,0.2,0.2,0.4,0.3,0.7c0.5,1.5-1.8,2.1-2.3,0.6
			c-0.3-0.8-1.2-1.3-2.1-1.2c-0.3,0-0.9,0.2-0.9,0.6c0,0.7,1.6,0.6,2,0.6c0.7,0,1.2,0.5,1.2,1.2c0,0.7-0.5,1.2-1.2,1.2
			C106.2-53.2,104.4-53.5,103.6-55z"/>
		<path class="st1" d="M63.4-102.4c0.7-0.6,1.7-0.7,2.5-0.2c0.8,0.5,1.3,1.3,1.3,2.3c0,0.7-0.5,1.2-1.2,1.2h-0.2
			c-0.2,0.2-0.4,0.3-0.6,0.4c-0.9,0.3-1.9-0.2-2.4-1C62.3-100.6,62.6-101.8,63.4-102.4z"/>
		<path class="st1" d="M37.3-93.1c0.9,1.3-1.2,2.5-2.1,1.2c-0.4-0.6-1.2-1.4-2-1.1c-0.3,0.1-0.8,0.7-0.6,1c1,1.2-0.7,2.9-1.7,1.7
			c-1.1-1.4-0.8-3.3,0.5-4.4c0.2-0.1,0.3-0.2,0.5-0.3C33.9-96.1,36.1-94.7,37.3-93.1z"/>
		<path class="st1" d="M45.4-79.9c0.9,0,1.9,0.3,2.5,1c0.7,0.7,0.8,1.8,0.4,2.7c-0.3,0.6-1.1,0.8-1.7,0.4c-0.6-0.3-0.8-1.1-0.4-1.7
			c-0.1,0.3-0.2,0.1-0.5,0c-0.1,0-0.2,0-0.4,0c0,0.2,0,0.4-0.2,0.6c-0.3,0.6-1.1,0.8-1.7,0.4c-0.8-0.5-1.1-1.6-0.5-2.5
			C43.5-79.6,44.5-80,45.4-79.9z"/>
		<path class="st1" d="M10.7-54.4c0,0.7-0.5,1.2-1.2,1.2c-0.7,0-1.2-0.5-1.2-1.2c0-0.2-0.1-0.5-0.2-0.7c-0.1,0.2-0.2,0.3-0.3,0.5
			c-0.7,0.7-1.9,0.7-2.5,0c-0.1-0.1-0.2-0.2-0.3-0.4c-0.5-1-0.1-2.2,0.9-2.7c0.1-0.1,0.2-0.1,0.3-0.1C8.4-58.7,10.7-56.7,10.7-54.4z
			"/>
		<path class="st1" d="M7.2-0.3c0.2,0.1,0.3,0.2,0.4,0.3H4.5C3.9-1.5,4.4-3.2,5.6-4.1c2.7-2.1,6-0.4,7.9,2c0.4,0.6,0.3,1.4-0.3,1.9
			c-0.1,0.1-0.3,0.2-0.5,0.2h-0.4c-0.2-0.1-0.4-0.2-0.6-0.4c-0.9-1.1-2-2.3-3.5-2.2c-0.6,0-1.2,0.3-1.6,0.9C6.5-1.3,6.6-0.5,7.2-0.3
			z"/>
		<path class="st1" d="M1.1-109.8c1.5-0.1,3,0.3,4.2,1.2c1.1,0.8,1.6,2.2,1.2,3.6c-0.5,1.2-1.5,2.1-2.8,2.4
			c-1.3,0.2-2.6-0.1-3.7-0.7v-2.6c0.2,0,0.3,0.1,0.4,0.2c0.8,0.5,3.2,1.7,3.7,0.2s-2.3-1.6-3.1-1.6c-0.5,0-0.9-0.3-1.1-0.8v-0.9
			C0.2-109.5,0.6-109.8,1.1-109.8z"/>
		<path class="st1" d="M48-116.4c2.8-0.8,5,1.9,4.8,4.5c-0.2,1.5-2.6,1.6-2.4,0c0.1-0.9-0.2-2.3-1.4-2.2c-0.7,0-1.1,0.8-0.4,1.2
			c1.4,0.7,0.2,2.7-1.2,2.1C44.9-112.1,45.5-115.8,48-116.4z"/>
		<path class="st1" d="M39.7-120.6c-0.4,1.1-1.5,1.8-2.6,1.8c-1.6,0.1-3.1-0.8-3.8-2.2h6.5C39.7-120.8,39.7-120.7,39.7-120.6z"/>
		<path class="st1" d="M44.4-102.9c1.6-0.2,3,0.8,3.3,2.4c0,0.3,0,0.6,0,1c-0.4,1.5-2.7,0.9-2.3-0.6c0-0.2-0.3-0.3-0.5-0.3
			c-0.3,0-0.5,0-0.7,0.1l0,0c0.1,0.6-0.4,1.2-1.1,1.2c-0.3,0-0.5,0-0.7-0.2c-0.8-0.5-1-1.5-0.5-2.2c0,0,0.1-0.1,0.1-0.1
			C42.6-102.5,43.5-102.9,44.4-102.9z"/>
		<path class="st1" d="M102.4-115.4c2.9-2.6,7.3,0.6,6.6,4.1c-0.3,1.5-2.6,0.9-2.3-0.7c0.1-1-0.7-1.8-1.7-1.9c-0.2,0-0.4,0-0.6,0.1
			c-0.9,0.4-0.8,2,0.1,1.5c1.4-0.8,2.6,1.3,1.2,2.1c-1.4,0.8-3.1,0.4-4-0.9C100.9-112.5,101.2-114.3,102.4-115.4z"/>
		<path class="st1" d="M115.1-91.1c1.9-0.9,4.1-0.7,5.8,0.5v4.9c-0.5-0.4-0.5-1.1-0.1-1.6c0,0,0.1-0.1,0.1-0.1
			c0.2-0.2-1.8-1.5-2.1-1.6c-0.9-0.4-1.8-0.3-2.7,0.1c-0.8,0.4-1.2,1.3-1,2.2c0.4,1.2,1.7,1.1,2.7,1.1c0.7,0.1,1.2,0.6,1.1,1.3
			c-0.1,0.6-0.5,1-1.1,1.1c-2.2,0-4.4-0.5-5-2.8C112.3-88,113.3-90.1,115.1-91.1z"/>
		<path class="st1" d="M111.3-65.2c-1.7-1.9-1.6-5.2,1.1-6.2c2.3-0.9,5,1.4,4,3.8c-0.6,1.4-2.9,0.8-2.3-0.7c0.2-0.3,0.1-0.7-0.2-0.9
			c-0.2-0.1-0.5-0.1-0.8,0.1c-0.6,0.4-0.8,1.3-0.3,1.9c0.1,0.1,0.1,0.2,0.2,0.2C114.1-65.7,112.4-64.1,111.3-65.2z"/>
		<path class="st1" d="M79.2-102.7c-0.7-0.2-1.3-0.7-1.7-1.3c0.5-0.5,1.2-0.7,1.9-0.7c0.7,0,2.3,0.4,2.1,1.3S79.9-102.5,79.2-102.7z
			 M74.9-103.8c0.7,1.9,2.3,3.3,4.4,3.6c1.8,0.3,4.1-0.6,4.6-2.5c0.6-2.1-1.3-3.8-3.2-4.2c-1.9-0.4-3.9,0.2-5.2,1.7
			c-0.1,0.1-0.2,0.2-0.2,0.3C74.9-104.7,74.8-104.2,74.9-103.8z"/>
		<path class="st1" d="M66.5-118.1c1.5,0.6,2.2,2.2,1.6,3.7c-0.3,0.8-0.9,1.4-1.7,1.7c-1.5,0.5-2.1-1.8-0.6-2.3
			c0.2-0.1,0.2-0.4,0.1-0.5s-0.4-0.3-0.6-0.3c-1-0.1-1.3,1-1.4,1.8c0,0.7-0.5,1.2-1.2,1.2c-0.7,0-1.2-0.5-1.2-1.2
			C61.6-116.6,63.8-119.1,66.5-118.1z"/>
		<path class="st1" d="M89.8-111.5c-0.3-0.1-0.5-0.3-0.7-0.5c-0.4,0.4-1.1,0.6-1.7,0.4c-0.6-0.2-1-0.7-1.2-1.3
			c-0.2-1.1,0.4-2.2,1.4-2.7c1-0.5,2.1-0.3,2.9,0.4c0.8,0.7,1,1.8,0.7,2.8C91-111.7,90.4-111.4,89.8-111.5z"/>
		<path class="st1" d="M115-38.6c-0.4,0-2.8-0.4-1.9-1.2c0.6-0.3,1.3-0.4,1.9-0.3c0.2,0,1,0.4,0.9,0.8c-0.2,0.3-0.2,0.7-0.1,1.1
			C115.6-38.5,115.3-38.6,115-38.6L115-38.6z M110.9-38.1c0.9,1.4,2.6,1.7,4.1,1.8c0.6,0,1.1-0.5,1.1-1.1c0-0.2,0-0.4-0.1-0.6
			c0.1,0.1,0.2,0.2,0.3,0.2c0.6,0.4,1.3,0.2,1.7-0.3c0,0,0,0,0-0.1c0.7-1.5,0.1-3.3-1.4-4c-1.5-0.7-3.3-0.6-4.8,0.1
			c-1.3,0.7-1.8,2.3-1.1,3.6C110.8-38.2,110.8-38.1,110.9-38.1z"/>
		<path class="st1" d="M116.3-11.5c-1.4,0.6-2.6-1.5-1.2-2.1c1.3-0.7,3-0.1,3.6,1.2c0.6,1.4,0.1,3.1-1.3,3.9
			c-1.5,0.8-3.4,0.8-4.9-0.2c-1.3-0.7-2.1-2.3-0.9-3.5c0.4-0.5,1.2-0.6,1.7-0.2c0.5,0.4,0.6,1,0.3,1.5c0.1,0,0.1,0.1,0.1,0.1
			c0.2,0.1,0.5,0.2,0.8,0.3c0.4,0.2,0.9,0.2,1.3,0.1c0.3-0.1,0.7-0.3,0.7-0.6C116.6-11,116.6-11.6,116.3-11.5z"/>
		<path class="st1" d="M116.3-1.5c1.5-0.8,3.3,0,4.4,1.1c0.1,0.1,0.2,0.2,0.2,0.3H115C115.2-0.7,115.7-1.2,116.3-1.5z"/>
		<path class="st1" d="M5.6-26.2c0.1,0.1,0.2,0.3,0.3,0.4L5.7-26c-0.2,0-0.3-0.2-0.3-0.3c0,0,0-0.1,0-0.2c0-0.1,0-0.1,0-0.2
			c0,0.1,0-0.1,0.1-0.1l0,0C5.5-26.5,5.5-26.4,5.6-26.2L5.6-26.2z M6.2-25.8c0.3,0.2,0.8,0.2,1.1,0l0.6-0.3c0.6-0.3,0.8-1.1,0.4-1.6
			c-0.9-1.4-2.7-1.8-4.1-1c-0.2,0.2-0.5,0.3-0.7,0.6C2.6-26.7,3-24.9,4.4-24c0.2,0.1,0.5,0.3,0.7,0.3c0.7,0.1,1.3-0.3,1.5-0.9
			C6.7-25,6.5-25.5,6.2-25.8z"/>
		<path class="st1" d="M45.3-64c-0.2,0.6-0.8,1-1.5,0.8c-1-0.3-1.6-1.3-1.5-2.3c0.2-1.2,1.1-2.1,2.3-2.2c2.1-0.3,4.6,1.8,3.4,4
			c-0.8,1.4-2.8,0.1-2.1-1.2c0,0,0-0.1-0.2-0.1c-0.2-0.1-0.4-0.2-0.6-0.3c-0.1,0-0.3,0-0.4,0.1C45.2-65,45.4-64.5,45.3-64z"/>
		<path class="st1" d="M78.2-34.5c0,0-0.1,0-0.1,0c-0.3,0.6-1,0.8-1.6,0.5c-0.2-0.1-0.4-0.3-0.5-0.4c-0.7-1.4-0.2-3,1.1-3.8
			c0.4-0.2,0.8-0.3,1.3-0.3c1.2,0,2.2,0.9,2.3,2.1c0,1.1-0.9,2-2,2C78.4-34.4,78.3-34.4,78.2-34.5z"/>
		<path class="st1" d="M65-48.1c-0.2,0.6-0.8,1-1.5,0.8c-0.1,0-0.1,0-0.2-0.1l-0.2,0.1c-1.1,0.3-2.2-0.2-2.6-1.3c-0.4-1,0-2.2,1-2.7
			c0.9-0.5,2-0.3,2.8,0.4C65.1-50.1,65.3-49.1,65-48.1z"/>
		<path class="st1" d="M73.5-68.1c2.6-1.8,6,1,4.4,3.8c-0.8,1.4-2.8,0.2-2.1-1.2c0.4-0.8-0.8-0.9-1.2-0.3c-0.6,1,0.3,1.9,1.2,2.1
			c1.5,0.3,0.9,2.7-0.6,2.3C72.3-62.1,70.7-66.2,73.5-68.1z"/>
		<path class="st1" d="M90.5-55.1L90.5-55.1L90.5-55.1L90.5-55.1L90.5-55.1L90.5-55.1L90.5-55.1z M92.9-54.3c0.4-2-1.6-4.2-3.7-3.2
			c-1.2,0.7-1.7,2.2-1,3.4c0.2,0.3,0.4,0.6,0.8,0.9c0.6,0.3,1.3,0.1,1.7-0.4c0-0.1,0.1-0.2,0.1-0.3c0.2,0.2,0.4,0.4,0.7,0.5
			C92-53.3,92.7-53.7,92.9-54.3L92.9-54.3z"/>
		<polygon class="st1" points="90.3,-55.3 90.3,-55.3 90.3,-55.3 90.3,-55.3 		"/>
		<polygon class="st1" points="90.5,-55.2 90.5,-55.1 90.5,-55.1 90.5,-55.2 		"/>
		<path class="st1" d="M90.3-55.3"/>
		<path class="st1" d="M90.5-55.2L90.5-55.2v0.1V-55.2z"/>
		<path class="st1" d="M78.4-15.8c1.5-0.3,2.2,2,0.7,2.3c-1.7,0.5-3.6-0.5-4.1-2.3c-0.5-1.7,0.5-3.6,2.3-4.1c1.5-0.4,3,0.2,3.8,1.6
			c0.3,0.6,0.1,1.3-0.4,1.7c-0.6,0.3-1.3,0.1-1.7-0.4l0,0c-0.2-0.4-0.7-0.7-1.2-0.5c-0.4,0.2-0.7,0.7-0.5,1.2
			C77.5-15.9,77.9-15.6,78.4-15.8L78.4-15.8z"/>
		<path class="st1" d="M19.1-115.7c1.5,1,1.8,3,0.8,4.5c-0.2,0.3-0.5,0.6-0.9,0.8c-2.3,1.3-5-1.1-4.5-3.6c0.4-1.5,2.7-0.9,2.3,0.7
			c-0.1,0.5,0.6,1,1,0.8c0.3-0.3,0.3-0.8,0-1.1C16.6-114.5,17.9-116.6,19.1-115.7z"/>
		<path class="st1" d="M24-82.5c0,0.7-0.6,1.2-1.2,1.2c-0.7,0-1.2-0.5-1.2-1.2c0.1-0.6-0.4-1.4-1.1-1.1c-0.4,0.3-0.6,0.9-0.3,1.3
			c0.8,1.3-1.3,2.5-2.1,1.2c-0.9-1.6-0.4-3.7,1.2-4.6c0.2-0.1,0.3-0.2,0.5-0.2c1.8-0.5,3.6,0.5,4.1,2.3C24-83.2,24-82.9,24-82.5z"/>
		<path class="st1" d="M20.6-0.1c-0.2-0.5-0.2-1.1-0.1-1.6c0.3-1,1.1-1.8,2.1-2c2.1-0.6,4.3,0.3,5.5,2.1c0.3,0.4,0.3,1.1-0.2,1.4
			c-0.1,0-0.1,0.1-0.2,0.1h-1.4c-0.1-0.1-0.2-0.2-0.3-0.3c-0.5-0.7-1.3-1.1-2.2-1c-0.3,0-0.8,0.1-0.9,0.4s0.2,0.7,0.4,1L20.6-0.1z"
			/>
		<path class="st1" d="M26.5-49.4c1.4-1.6,3.6-1.1,5.2-0.1c1.3,0.8,0.1,2.9-1.2,2.1C30-47.8,29.4-48,28.7-48c-0.2,0-0.3,0.2-0.4,0.2
			l0,0c1.4,0.2,1.4,2.5-0.1,2.4c-1.3-0.1-2.4-1.3-2.3-2.6C25.9-48.5,26.2-49,26.5-49.4z"/>
		<path class="st1" d="M28.3-47.8L28.3-47.8z"/>
		<path class="st1" d="M92-85.7c0.9,2.3,0.3,5.2-2.2,6.2c-1.7,0.7-3.7-0.1-4.4-1.8c-0.2-0.5-0.3-0.9-0.3-1.4c0.1-1.5,2.5-1.6,2.4,0
			c-0.1,1.1,1,1.3,1.8,0.7c0.9-0.8,0.7-2.1,0.3-3.1C89.1-86.5,91.5-87.2,92-85.7z"/>
		<path class="st1" d="M102.6-69.6c1.6-0.1,1.6,2.3,0,2.4c-2.4,0.1-3.3-3-1.6-4.4c1.9-1.6,4.5-0.2,5.4,1.8c0.3,0.6,0.2,1.3-0.4,1.7
			c-0.6,0.3-1.3,0.1-1.7-0.4c-0.2-0.6-0.7-1.4-1.4-1.3C102.8-69.9,102.6-69.8,102.6-69.6C102.5-69.7,102.5-69.6,102.6-69.6z"/>
		<path class="st1" d="M120.6-52.3c0.1,0,0.2,0.1,0.3,0.1v2.4c-0.7,0-1.3-0.2-1.9-0.6c-0.8-0.5-1.3-1.5-1.2-2.4
			c0.2-1.7,1.7-2.2,3.1-2.1v2.4c-0.2,0-0.4,0-0.5,0h-0.2l0,0C120.4-52.4,120.4-52.4,120.6-52.3z"/>
		<path class="st1" d="M111.2-99.9c-0.3,0-0.4-0.2-0.3-0.4c0,0,0.1-0.1,0.1-0.1s0.2,0.2,0.2,0.2C111.2-100.1,111.2-100,111.2-99.9
			L111.2-99.9z M109.1-101.9c-0.8,0.9-0.9,2.2-0.3,3.2c0.7,1,1.9,1.4,3,1.2c0.5-0.1,0.9-0.7,0.9-1.2c0.4-0.1,0.7-0.4,0.8-0.8
			c0.3-1.2-0.3-2.4-1.4-2.9C111.1-103,109.9-102.8,109.1-101.9L109.1-101.9z"/>
		<path class="st1" d="M77.7-89.8c0.6,1.4-1.8,2.1-2.3,0.6c-0.5-1.2-2.4-1.8-3-0.4c-0.7,1.7,1.6,1.9,2.8,2c0.7,0,1.2,0.5,1.2,1.2
			c0,0.7-0.5,1.2-1.2,1.2c-1.7-0.1-3.4-0.2-4.6-1.6c-0.9-1.2-1-2.9-0.2-4.2C72.2-94.1,76.5-92.8,77.7-89.8z"/>
		<path class="st1" d="M1.7-85.7c-0.4,0.5-1.2,0.5-1.6,0c0,0,0,0,0,0v-4.9c0.2,0.1,0.3,0.2,0.4,0.3C1.9-89.3,3.2-87.2,1.7-85.7z"/>
		<path class="st1" d="M1.1-49.8c-0.4,0-0.7,0-1.1,0v-2.4c0.4,0,0.7,0,1.1,0C2.6-52.3,2.6-49.9,1.1-49.8z"/>
		<path class="st1" d="M0.5-52.5L0-52.6V-55c0.4,0,0.8,0.1,1.1,0.1C2.7-54.5,2-52.2,0.5-52.5z"/>
		<path class="st1" d="M32.8-1.5c-0.1-1.6,2.3-1.6,2.4,0c0.1,0.5,0.4,1,0.9,1.1c0.2,0.1,0.4,0.1,0.6,0.1H37c-0.5-0.5-0.5-1.3,0-1.8
			c0.3-0.3,0.8-0.5,1.2-0.3c1.1,0.2,1.7,1.2,1.6,2.3h-6.5C33-0.5,32.9-1,32.8-1.5z"/>
		<path class="st1" d="M196.2-119.7c-0.5-0.4-0.9-0.8-1.2-1.3h3.3C198.7-120.1,197.3-118.8,196.2-119.7z"/>
		<path class="st1" d="M127.4-118.9c-1-0.4-1.7-1.1-2.1-2.1h3.1C129.4-120.2,128.7-118.4,127.4-118.9z"/>
		<path class="st1" d="M133.3-121h0.4C133.5-120.9,133.4-120.9,133.3-121z"/>
		<path class="st1" d="M241.8-120.9v1c-0.2,0.6-0.9,0.9-1.5,0.7c-0.2-0.1-0.3-0.2-0.4-0.3c-0.3-0.3-0.9-0.9-1.4-0.8
			c-0.1,0-0.4,0.2-0.3,0.3c0.7,1.4-1.4,2.6-2.1,1.2c-0.3-0.7-0.4-1.5-0.1-2.2H241.8z"/>
		<path class="st1" d="M144.4-120.6c0.9,1.3-1.2,2.5-2.1,1.2c-0.3-0.5-0.6-1-0.8-1.6h2.6L144.4-120.6z"/>
		<path class="st1" d="M147.2-121h1.4C148.2-120.7,147.6-120.7,147.2-121z"/>
		<path class="st1" d="M120.9-120v-1C121.1-120.6,121.1-120.3,120.9-120z"/>
		<path class="st1" d="M241.8-109.1v0.9C241.7-108.5,241.7-108.8,241.8-109.1z"/>
		<path class="st1" d="M241.8-106.1v2.7c-0.3-0.1-0.5-0.3-0.8-0.4c-0.6-0.4-0.7-1.1-0.4-1.7C240.9-105.9,241.3-106.1,241.8-106.1z"
			/>
		<path class="st1" d="M140.2-15.7c1.5,0.3,0.9,2.7-0.6,2.3c-2.1-0.4-4.6-1.4-5-3.8s1.6-4.4,3.8-4.9c1.8-0.4,5.5-0.8,6,1.6
			s-2.1,4.1-4.2,4.3c-1.6,0.1-1.5-2.3,0-2.4c0.5,0,1.1-0.2,1.4-0.6c0.5-0.7,0.3-0.5-0.3-0.7c-1.2-0.2-2.4,0-3.5,0.7
			c-0.7,0.4-1,1.2-0.7,2c0.1,0.2,0.2,0.3,0.4,0.5C138.3-16.1,139.2-15.8,140.2-15.7z"/>
		<path class="st1" d="M151-12.9c1.5,0.2,1.6,2.6,0,2.4c-1.5-0.1-2.7-1.3-2.9-2.8c-0.1-1.6,1-3.1,2.5-3.7c2-0.8,4.2,0.1,5,2.1
			c0.4,1,0.4,2.1,0,3c-0.6,1.4-2.7,0.2-2.1-1.2c0.5-1.1-0.8-1.9-1.7-1.8c-0.5,0.1-1,0.4-1.2,0.8C150.5-13.6,150.5-13,151-12.9z"/>
		<path class="st1" d="M197.9-0.5c0.1,0.1,0.3,0.3,0.3,0.4H195c-0.8-1-1.2-2.3-1.1-3.6c0.1-1.9,1.6-3.4,3.5-3.4
			c2.9-0.1,8.4,4.2,4.6,6.8c-1.3,0.9-2.5-1.2-1.2-2.1c0.4-0.3-1.4-1.6-1.5-1.6c-0.6-0.5-1.5-0.7-2.3-0.5
			C195.1-3.7,197.1-1.2,197.9-0.5z"/>
		<path class="st1" d="M184.7-20.4c-1.5,0.2-1.5-2.2,0-2.4s3.6-0.1,4.6,1.1c0.8,1.1,0.8,2.7-0.1,3.8c-1.4,1.9-4.1,2.3-6,1
			c-0.4-0.3-0.8-0.7-1.1-1.2c-0.9-1.3,1.2-2.5,2.1-1.2c0.6,0.8,1.7,1.1,2.5,0.5c0.1-0.1,0.2-0.2,0.3-0.3
			C188.4-20.7,185.6-20.5,184.7-20.4z"/>
		<path class="st1" d="M167.5-41.2c1.9-1.1,4.3-1,6.2,0.2c1.9,1.2,2.7,3.4,1.2,5.3c-1,1.2-2.7-0.5-1.7-1.7c0.8-1-1.7-2-2.2-2
			c-1-0.2-2,0.1-2.7,0.8c-1.4,1.4-0.8,3.9,1.3,3.9c0.7,0,1.2,0.5,1.2,1.2c0,0.7-0.5,1.2-1.2,1.2C164.7-32.5,163.6-38.8,167.5-41.2z"
			/>
		<path class="st1" d="M181.2-35.4c-0.9-1.2,1.2-2.4,2.1-1.2c0.7,0.8,1.9,0.9,2.8,0.3c0.4-0.3,0.8-0.7,1-1.1
			c0.5-0.8-0.2-0.4-0.7-0.2c-1.4,0.7-2.6-1.4-1.2-2.1s3.1-1.1,4.2,0.3c0.9,1.2,0.2,2.8-0.7,3.9c-1.5,2.1-4.5,2.5-6.5,1
			C181.8-34.8,181.5-35.1,181.2-35.4z"/>
		<path class="st1" d="M207.7-23.2c-2.2-1.9-1.1-5.6,1.4-6.4s7,1.2,5.8,4.5c-0.5,1.5-2.8,0.8-2.3-0.6c0.5-1.3-2-1.9-2.9-1.5
			c-0.7,0.3-1.1,1.1-0.8,1.8c0.1,0.2,0.2,0.4,0.4,0.5C210.6-23.9,208.9-22.2,207.7-23.2z"/>
		<path class="st1" d="M218.7-13.7l-0.8,0.1c-0.5,0-0.9-0.3-1.1-0.7c-0.2,0.2-0.4,0.4-0.4,0.7c-0.2,0.6-0.8,1-1.5,0.9
			c-0.6-0.2-1-0.8-0.8-1.5c0.3-1.7,2-2.8,3.7-2.5c0.7,0.1,1.3,0.5,1.8,1c0.5,0.5,0.4,1.3-0.1,1.7C219.3-13.8,219-13.7,218.7-13.7z"
			/>
		<path class="st1" d="M142.4-38.7c-1.8,0.4-0.8,2.1,0.1,2.9c1.2,1-0.5,2.7-1.7,1.7c-2.5-2-2.6-6.1,0.9-7c2.4-0.6,5,0.8,5.6,3.3
			c0.2,0.8,0.2,1.5,0,2.3c-0.2,0.6-0.9,0.9-1.6,0.7c-0.5-0.2-0.9-0.8-0.8-1.3c0.3-1.1-0.4-2.3-1.6-2.5
			C143.1-38.8,142.7-38.8,142.4-38.7z"/>
		<path class="st1" d="M154.7-26.5c-1.7,0.8-3.9,0.3-4.6-1.6c-0.6-1.5,1.8-2.1,2.3-0.6c0.1,0.2,0.7,0.2,0.8,0.2
			c0.2,0,0.4-0.1,0.6-0.2c-0.6-0.4-0.7-1.1-0.3-1.7c0.3-0.4,0.8-0.6,1.3-0.5c1,0.2,1.7,1.2,1.6,2.2
			C156.4-27.8,155.7-26.9,154.7-26.5z"/>
		<path class="st1" d="M163.7-49.3c1.2,1-0.6,2.7-1.7,1.7c-1.5-1.3-2.8-3-2.8-5c0-1.8,1.2-3.3,2.9-3.7c3.6-0.9,7.9,3.2,5,6.5
			c-1,1.2-2.7-0.5-1.7-1.7c1.3-1.5-2.2-3.3-3.4-2.1C160.6-52.3,162.7-50.2,163.7-49.3z"/>
		<path class="st1" d="M147.5-62.4c-0.5-0.5-4-2.8-4.5-1.3c-0.5,1.4-2.8,0.8-2.3-0.6c1.5-4.7,9.7-0.9,10,2.8
			c0.4,4.8-9.2,5.2-8.6,0.5c0.2-1.5,2.6-0.9,2.3,0.6c0,0.2,2.3,0.2,2.6,0.2c0.5,0,0.9-0.3,1.1-0.7C148.4-61.6,147.9-61.9,147.5-62.4
			z"/>
		<path class="st1" d="M131.1-77.8c1.5-0.3,3.4-0.1,4.3,1.3c0.8,1.3,0.4,3-0.8,3.8c0,0,0,0,0,0c-1.4,0.7-2.6-1.3-1.2-2.1
			c0.1-0.1,0.1-0.3,0-0.5c-0.4-0.4-1.3-0.2-1.8-0.1c-1.6,0.5-0.8,1.9,0.4,2.3c1.4,0.5,0.8,2.9-0.6,2.3c-1.6-0.4-2.8-1.8-3.1-3.5
			C128.1-76,129.4-77.5,131.1-77.8z"/>
		<path class="st1" d="M152.6-79.7c1.5,0,2.9,0.9,3.5,2.3c0.5,1.3,0,2.9-1.2,3.6c-0.6,0.3-1.3,0.1-1.7-0.4s-0.1-1.3,0.4-1.7l0,0
			c1-0.6-0.9-1.4-1.4-1.4c-1.4,0.1-0.2,2,0.4,2.4c1.2,1-0.5,2.7-1.7,1.7c-1.2-1-1.8-2.5-1.7-4C149.5-78.8,151-79.9,152.6-79.7
			C152.6-79.7,152.6-79.7,152.6-79.7z"/>
		<path class="st1" d="M182.8-63.1c0.8,1.1,0.6,2.6-0.5,3.4c-0.4,0.3-0.8,0.4-1.3,0.5c-1.5,0.1-1.5-2.2-0.1-2.4l0,0
			c-0.1-0.1-0.2-0.3-0.3-0.4c-0.2-0.1-0.3-0.2-0.5-0.3c-0.5-0.2-1-0.2-1.4,0c-0.5,0.3-0.8,1.4-0.1,1.7c0.6,0.2,1,0.8,0.9,1.5
			c-0.2,0.6-0.8,1-1.5,0.8c-1.7-0.8-2.6-2.8-1.8-4.5c0.5-1.1,1.4-1.8,2.6-2C180.2-65.2,181.9-64.5,182.8-63.1z"/>
		<path class="st1" d="M194.4-51.1c0.6-0.3,1.3-0.1,1.6,0.5c0.2,0.3,0.2,0.6,0.1,0.9v0.1l0.3,0.3c0.2,0.3,0.5,0.6,0.9,0.8
			c0.6,0.5,1.6,0.4,2.1-0.2c0.6-0.8,0.8-3-0.2-3.5c-1.4-0.7-0.1-2.8,1.2-2.1c2.8,1.5,2.3,6.9-0.5,8.2c-1.7,0.7-3.6,0.2-4.8-1.1
			C194.1-48.1,192.7-50.1,194.4-51.1z"/>
		<path class="st1" d="M219.6-43.2c0.3,1.6-0.7,3.2-2.2,3.6c-0.6,0.2-1.3-0.2-1.5-0.8c-0.2-0.6,0.2-1.3,0.9-1.5l0,0
			c1.2-0.3,0.1-1.8-1-1.3c-1.6,0.7-0.9,2.8-0.1,3.8c1,1.2-0.7,2.9-1.7,1.7c-1.3-1.4-1.8-3.4-1.3-5.3c0.5-1.6,2-2.7,3.7-2.8
			C217.9-45.8,219.2-44.7,219.6-43.2z"/>
		<path class="st1" d="M220.1-3.8c-0.9-1.4-0.5-3.3,1-4.2c0.3-0.2,0.6-0.3,0.9-0.4c1.4-0.3,2.8,0.7,3,2.1c0.1,0.5,0,1.1-0.2,1.6
			c-0.3,0.6-1.1,0.8-1.6,0.5c-0.6-0.3-0.8-1.1-0.5-1.6l0,0c0.1,0.1-0.1-0.2,0-0.1c-0.1-0.2-0.1-0.1,0,0c-0.1,0-0.2,0-0.2,0
			c-0.1,0.1-0.2,0.2-0.3,0.3c-0.1,0.2,0,0.5,0.1,0.7C222.9-3.7,220.8-2.5,220.1-3.8z"/>
		<path class="st1" d="M228.1-25.1c0.1-0.2,0.3-0.3,0.5-0.3c0.2,0.1,0.3,0.3,0.3,0.5c0,0.2,0,0.3,0,0.5h-0.1c-0.3,0.1-0.6,0-0.7-0.3
			C228.1-24.8,228.1-25,228.1-25.1L228.1-25.1z M230.6-23.4c0.3-0.1,0.6-0.4,0.6-0.8c0.3-1.4-0.4-2.8-1.7-3.4
			c-1.3-0.5-2.7,0-3.4,1.1c-0.7,1.1-0.6,2.6,0.4,3.6c1,0.9,2.4,1.1,3.6,0.6C230.5-22.5,230.7-22.9,230.6-23.4L230.6-23.4z"/>
		<path class="st1" d="M174.7-8.8c0.7-0.1,1.3,0.3,1.4,0.9c0.1,0.6-0.2,1.2-0.8,1.4c-2.1,0.7-3.8-1.9-2.8-3.7c1.3-2.3,4.1-1.7,6-0.8
			c0.6,0.3,0.8,1.1,0.4,1.6c-0.3,0.6-1.1,0.8-1.6,0.4c-0.7-0.4-1.5-0.6-2.3-0.4C174.9-9.2,174.5-8.7,174.7-8.8z"/>
		<path class="st1" d="M166.9-24.8c0-0.7,0.5-1.2,1.2-1.2c1-0.2,2.1,0,3,0.4c0.8,0.5,1.3,1.3,1.4,2.2c0.1,0.9-0.3,1.7-1.1,2.2
			c-1.1,0.5-2.3,0.3-3.2-0.5c-0.6-0.4-0.7-1.1-0.4-1.6c0.1-0.1,0.1-0.2,0.2-0.2C167.4-23.6,166.9-24.1,166.9-24.8z"/>
		<path class="st1" d="M123.7-39.2c0.2-0.6,0.8-1,1.5-0.8c0.6,0.3,1.3,0.3,1.9,0h0.1c-0.3-0.1-0.5-0.1-0.8-0.2
			c-1.6-0.1-1.6-2.5,0-2.4c1,0,1.9,0.3,2.7,0.9c0.7,0.7,0.9,1.8,0.5,2.7c-0.9,1.6-3.3,2-4.9,1.4C123.9-37.8,123.5-38.5,123.7-39.2
			C123.7-39.2,123.7-39.2,123.7-39.2z"/>
		<path class="st1" d="M174.7-93.7c1.6-1.2,3.8-0.9,4.9,0.7c0.5,0.7,0.8,1.5,0.7,2.3c-0.1,1.5-2.5,1.6-2.4,0c0.1-1-0.9-1.8-1.8-1.1
			c-0.5,0.5-0.6,1.2-0.1,1.8c0.2,0.2,0.4,0.3,0.6,0.4c1.5,0.5,0.9,2.8-0.6,2.3c-2-0.5-3.1-2.6-2.6-4.5
			C173.7-92.5,174.1-93.2,174.7-93.7z"/>
		<path class="st1" d="M191.5-73.6c-1,1.2-2.8-0.6-1.7-1.7c-0.2,0.2-0.3,0-0.6,0c-0.3-0.1-0.5-0.1-0.8-0.1c-0.5-0.1-1,0.1-1.4,0.3
			c-1.1,1.2,1.4,2,2.1,2.1c1.5,0.3,0.9,2.6-0.6,2.3c-1.7-0.2-3.2-1.3-3.8-2.8c-0.5-1.5,0.1-3.2,1.6-3.9c1.4-0.6,3-0.6,4.4,0
			c1.2,0.5,1.8,1.9,1.3,3.1C191.8-74,191.7-73.8,191.5-73.6z"/>
		<path class="st1" d="M214-68c-0.6,1-1.5,1.7-2.6,1.9c-2.2,0.5-4.5-0.7-5.3-2.9c-0.6-1.4,1.7-2.1,2.3-0.6c0.4,1,1.5,1.5,2.5,1.1
			c0.1,0,0.2-0.1,0.3-0.1c-0.5-0.4-0.6-1.2-0.1-1.7c0.4-0.4,1-0.5,1.5-0.3C213.4-70.2,214.4-69.1,214-68z"/>
		<path class="st1" d="M220.2-85.3c0.7-0.6,1.6-0.8,2.5-0.3c0.4,0.2,2.3,1.7,1,2c-0.3,0.1-0.5,0.2-0.7,0.4c-0.4-0.2-1-0.2-1.3,0.2
			c-0.6,0.4-1.3,0.3-1.8-0.3C219.6-84,219.7-84.8,220.2-85.3L220.2-85.3z M219-87.4c-1.8,1.3-2.3,3.9-0.9,5.7c0,0,0,0,0,0
			c1.3,1.6,3.7,1.8,5.3,0.4c0,0,0,0,0,0c0,0,0.1,0,0.1-0.1c0.3,0.1,0.6,0.2,0.8,0.1c2.7-0.6,2.6-3.8,1-5.5
			C223.6-88.5,221-88.8,219-87.4z"/>
		<path class="st1" d="M217.2-100.2c-0.8,0.1-1-0.8-0.2-1.1c0.5-0.2,1.7,0.5,1.4,0.8c-0.2,0.2-0.3,0.4-0.3,0.6
			C217.8-100.1,217.5-100.2,217.2-100.2L217.2-100.2z M214.1-100c0.3,1.4,1.6,2.4,3.1,2.3c0.6,0,1.1-0.4,1.2-1
			c0.4,0.5,1.1,0.5,1.6,0c0,0,0,0,0,0c1-1.1,0.9-2.8-0.1-3.9c-1-1.1-2.6-1.5-4-0.9C214.6-102.9,213.9-101.5,214.1-100L214.1-100z"/>
		<path class="st1" d="M154.5-107.7c0.2,1.6-0.9,3-2.5,3.2c-0.3,0-0.7,0-1,0c-0.6-0.2-1-0.9-0.8-1.5c0.2-0.6,0.8-0.9,1.4-0.8
			c0.8,0.2,0.3-0.9,0-1.2c-0.6-0.4-1.3-0.4-2-0.2c-0.7,0.1-1.3,0.6-1.5,1.3c-0.2,0.6,0,1.2,0.6,1.6c1.4,0.6,0.8,2.9-0.6,2.3
			c-1.8-0.7-2.8-2.7-2.2-4.5c0.7-1.9,2.5-3.2,4.6-3.1C152.2-110.8,154.3-109.7,154.5-107.7z"/>
		<path class="st1" d="M137.1-99.4c1.7,0.2,3.1,1.4,3.4,3.1c0.2,1.6-0.8,3.1-2.3,3.5c-1.5,0.3-2.2-2-0.6-2.3c0.4,0,0.7-0.4,0.6-0.8
			c0,0,0-0.1,0-0.1c-0.2-0.6-0.8-0.9-1.4-1c-0.6-0.1-1.1,0.1-1.5,0.4c-0.2,0.3-0.2,0.7,0.1,0.9c0,0,0,0,0,0c0.6,0.3,0.8,1.1,0.4,1.7
			s-1.1,0.8-1.7,0.4c-1.3-0.8-1.8-2.4-1.2-3.8C133.8-98.9,135.5-99.7,137.1-99.4z"/>
		<path class="st1" d="M224.5-55c-0.7-1.3-0.2-3,1.1-3.7c2.1-1.2,4.8-0.4,5.9,1.7c0.1,0.2,0.2,0.4,0.3,0.7c0.5,1.5-1.8,2.1-2.3,0.6
			c-0.3-0.8-1.2-1.3-2.1-1.2c-0.3,0-0.9,0.2-0.9,0.6c0,0.7,1.6,0.6,2,0.6c0.7,0,1.2,0.5,1.2,1.2c0,0.7-0.5,1.2-1.2,1.2
			C227.1-53.2,225.4-53.5,224.5-55z"/>
		<path class="st1" d="M184.3-102.4c0.7-0.6,1.7-0.7,2.5-0.2c0.8,0.5,1.3,1.3,1.3,2.3c0,0.7-0.5,1.2-1.2,1.2h-0.2
			c-0.2,0.2-0.4,0.3-0.6,0.4c-0.9,0.3-1.9-0.2-2.4-1C183.2-100.6,183.4-101.8,184.3-102.4z"/>
		<path class="st1" d="M158.2-93.1c0.9,1.3-1.2,2.5-2.1,1.2c-0.4-0.6-1.3-1.4-2-1.1c-0.3,0.1-0.8,0.7-0.6,1c1,1.2-0.7,2.9-1.7,1.7
			c-1.1-1.3-0.9-3.3,0.5-4.4c0.2-0.1,0.3-0.2,0.5-0.3C154.8-96.1,157-94.7,158.2-93.1z"/>
		<path class="st1" d="M166.3-79.9c0.9,0,1.9,0.3,2.6,1c0.7,0.7,0.8,1.8,0.4,2.7c-0.3,0.6-1.1,0.8-1.6,0.4c-0.6-0.3-0.8-1.1-0.4-1.7
			c-0.1,0.3-0.2,0.1-0.5,0c-0.1,0-0.2,0-0.4,0c0,0.2,0,0.4-0.2,0.6c-0.3,0.6-1.1,0.8-1.6,0.4c-0.8-0.5-1.1-1.6-0.6-2.4
			C164.4-79.6,165.4-80,166.3-79.9z"/>
		<path class="st1" d="M131.6-54.4c0,0.7-0.5,1.2-1.2,1.2c-0.7,0-1.2-0.5-1.2-1.2c0-0.2-0.1-0.5-0.2-0.7c-0.1,0.2-0.2,0.3-0.3,0.5
			c-0.7,0.7-1.9,0.7-2.5-0.1c-0.1-0.1-0.2-0.2-0.3-0.4c-0.5-1-0.1-2.2,0.9-2.7c0.1-0.1,0.2-0.1,0.3-0.1
			C129.3-58.7,131.6-56.7,131.6-54.4z"/>
		<path class="st1" d="M128.1-0.3c0.2,0.1,0.3,0.2,0.4,0.3h-3.1c-0.6-1.5-0.1-3.1,1.2-4.1c2.7-2.1,6-0.4,7.9,2
			c0.4,0.6,0.3,1.4-0.3,1.9c-0.1,0.1-0.3,0.2-0.5,0.2h-0.4c-0.2-0.1-0.4-0.2-0.6-0.4c-0.9-1.1-2-2.3-3.5-2.2c-0.6,0-1.2,0.3-1.6,0.9
			C127.4-1.2,127.6-0.6,128.1-0.3z"/>
		<path class="st1" d="M122-109.8c1.5-0.1,3,0.3,4.2,1.2c1.1,0.8,1.6,2.3,1.2,3.6c-0.5,1.2-1.5,2.1-2.8,2.4
			c-1.3,0.2-2.6-0.1-3.7-0.7v-2.7c0.2,0,0.3,0.1,0.4,0.2c0.8,0.5,3.2,1.7,3.8,0.2s-2.3-1.6-3.1-1.6c-0.5,0-0.9-0.3-1.1-0.8v-0.9
			C121.1-109.5,121.5-109.8,122-109.8z"/>
		<path class="st1" d="M168.9-116.4c2.8-0.8,5,1.9,4.8,4.5c-0.1,1.5-2.6,1.6-2.4,0c0.1-0.9-0.2-2.3-1.4-2.2c-0.7,0-1.1,0.8-0.4,1.2
			c1.4,0.7,0.2,2.7-1.2,2.1C165.8-112.1,166.4-115.8,168.9-116.4z"/>
		<path class="st1" d="M160.6-120.6c-0.4,1.1-1.5,1.8-2.6,1.8c-1.6,0.1-3.1-0.8-3.8-2.2h6.5C160.6-120.8,160.6-120.7,160.6-120.6z"
			/>
		<path class="st1" d="M165.3-102.9c1.6-0.2,3,0.8,3.3,2.4c0.1,0.3,0,0.7,0,1c-0.4,1.5-2.7,0.9-2.3-0.6c0.1-0.2-0.3-0.3-0.5-0.3
			c-0.3,0-0.5,0-0.7,0.1l0,0c0,0.6-0.4,1.2-1.1,1.2c-0.2,0-0.5,0-0.7-0.2c-0.8-0.5-1-1.5-0.5-2.2c0-0.1,0.1-0.1,0.1-0.2
			C163.5-102.5,164.4-102.9,165.3-102.9z"/>
		<path class="st1" d="M223.3-115.4c2.9-2.6,7.3,0.6,6.6,4.1c-0.3,1.5-2.6,0.9-2.3-0.7c0.1-1-0.7-1.8-1.7-1.9c-0.2,0-0.4,0-0.6,0.1
			c-0.9,0.4-0.8,2,0.1,1.5c1.4-0.8,2.6,1.3,1.2,2.1c-1.3,0.8-3.1,0.4-3.9-0.9C221.8-112.5,222.1-114.3,223.3-115.4z"/>
		<path class="st1" d="M236-91.1c1.9-0.9,4.1-0.7,5.8,0.5v4.9c-0.5-0.4-0.5-1.2-0.1-1.6c0,0,0,0,0.1-0.1c0.2-0.2-1.8-1.5-2.1-1.6
			c-0.9-0.4-1.8-0.3-2.6,0.1c-0.8,0.4-1.2,1.3-1,2.2c0.4,1.2,1.7,1.1,2.7,1.1c0.7,0.1,1.2,0.6,1.1,1.3c-0.1,0.6-0.5,1-1.1,1.1
			c-2.2,0-4.4-0.5-5-2.8C233.3-88,234.2-90.1,236-91.1z"/>
		<path class="st1" d="M232.2-65.2c-1.7-1.9-1.6-5.2,1.1-6.2c2.3-0.9,5,1.4,4,3.8c-0.6,1.4-2.9,0.8-2.3-0.7c0.2-0.3,0.1-0.7-0.2-0.9
			c-0.2-0.1-0.5-0.1-0.8,0.1c-0.6,0.4-0.8,1.3-0.3,1.9c0.1,0.1,0.1,0.2,0.2,0.2C235-65.7,233.3-64.1,232.2-65.2z"/>
		<path class="st1" d="M200.1-102.7c-0.7-0.2-1.3-0.7-1.7-1.3c0.5-0.5,1.2-0.7,1.9-0.7c0.7,0,2.3,0.4,2.1,1.3
			S200.8-102.5,200.1-102.7z M195.8-103.8c0.7,1.9,2.3,3.3,4.4,3.6c1.8,0.3,4.1-0.6,4.6-2.5c0.6-2.1-1.3-3.8-3.2-4.2
			c-1.9-0.4-3.9,0.2-5.2,1.7C196-104.9,195.8-104.4,195.8-103.8z"/>
		<path class="st1" d="M187.4-118.1c1.5,0.6,2.2,2.2,1.6,3.7c-0.3,0.8-0.9,1.4-1.7,1.7c-1.5,0.5-2.1-1.8-0.6-2.3
			c0.1-0.1,0.2-0.4,0.1-0.5c-0.1-0.2-0.4-0.4-0.6-0.3c-1-0.1-1.4,1-1.4,1.8c-0.1,0.7-0.6,1.2-1.3,1.1c-0.6-0.1-1-0.5-1.1-1.1
			C182.5-116.6,184.7-119.1,187.4-118.1z"/>
		<path class="st1" d="M210.6-111.5c-0.3-0.1-0.5-0.3-0.7-0.5c-0.4,0.4-1.1,0.6-1.7,0.4c-0.6-0.2-1-0.7-1.2-1.3
			c-0.2-1.1,0.4-2.2,1.4-2.7c1-0.5,2.1-0.3,2.9,0.4c0.7,0.7,1,1.8,0.7,2.8C212-111.7,211.3-111.4,210.6-111.5z"/>
		<path class="st1" d="M235.9-38.6c-0.4,0-2.8-0.4-1.9-1.2c0.6-0.3,1.3-0.4,1.9-0.3c0.2,0,1,0.4,0.9,0.8c-0.2,0.3-0.2,0.7-0.1,1.1
			C236.5-38.5,236.2-38.6,235.9-38.6L235.9-38.6z M231.8-38.1c0.9,1.4,2.6,1.7,4.1,1.8c0.6,0,1.1-0.5,1.1-1.1c0-0.2,0-0.4-0.1-0.6
			c0.1,0.1,0.2,0.2,0.3,0.2c0.6,0.3,1.3,0.1,1.6-0.4c0.7-1.4,0.2-3.2-1.3-4c-1.5-0.7-3.3-0.6-4.8,0.1c-1.3,0.7-1.8,2.3-1.1,3.6
			C231.7-38.2,231.7-38.1,231.8-38.1z"/>
		<path class="st1" d="M237.2-11.5c-1.4,0.6-2.6-1.5-1.2-2.1c1.3-0.7,3-0.1,3.6,1.2c0.6,1.4,0.1,3.1-1.3,3.9
			c-1.5,0.8-3.4,0.8-4.9-0.2c-1.3-0.7-2.1-2.3-0.9-3.5c0.5-0.5,1.2-0.5,1.7-0.1c0.4,0.4,0.5,0.9,0.3,1.4l0.1,0.1
			c0.2,0.1,0.5,0.2,0.7,0.3c0.4,0.2,0.9,0.2,1.3,0.1c0.3-0.1,0.7-0.3,0.7-0.6C237.5-11,237.5-11.6,237.2-11.5z"/>
		<path class="st1" d="M237.2-1.5c1.5-0.8,3.3,0,4.4,1.1c0.1,0.1,0.2,0.2,0.2,0.3h-5.9C236.1-0.7,236.6-1.2,237.2-1.5z"/>
		<path class="st1" d="M126.5-26.2c0.1,0.1,0.2,0.3,0.3,0.4l-0.2-0.1c-0.2,0-0.3-0.2-0.3-0.3v-0.2v-0.2c0,0.1,0-0.1,0-0.1l0,0
			C126.3-26.5,126.4-26.4,126.5-26.2L126.5-26.2z M127.1-25.8c0.3,0.2,0.8,0.2,1.1,0l0.6-0.3c0.6-0.3,0.8-1.1,0.4-1.6
			c-0.7-1.4-2.4-2-3.9-1.3s-2,2.4-1.3,3.9c0.4,0.7,1.1,1.3,1.9,1.5c0.7,0.1,1.3-0.3,1.5-0.9C127.6-25,127.4-25.5,127.1-25.8z"/>
		<path class="st1" d="M166.2-64c-0.2,0.6-0.8,1-1.5,0.8c-1-0.3-1.6-1.3-1.5-2.3c0.2-1.2,1.1-2.1,2.4-2.2c2.1-0.3,4.6,1.8,3.4,4
			c-0.8,1.4-2.9,0.1-2.1-1.2c0,0,0-0.1-0.2-0.1c-0.2-0.1-0.4-0.2-0.6-0.3c-0.1,0-0.3,0-0.4,0.1C166.1-65,166.3-64.5,166.2-64z"/>
		<path class="st1" d="M199.1-34.5c0,0-0.1,0-0.1,0c-0.3,0.6-1,0.8-1.6,0.5c-0.2-0.1-0.4-0.3-0.5-0.4c-0.7-1.4-0.2-3,1.1-3.8
			c0.4-0.2,0.8-0.3,1.3-0.3c1.2,0,2.2,0.9,2.3,2.1c0,1.1-0.9,2-2,2C199.3-34.4,199.2-34.4,199.1-34.5z"/>
		<path class="st1" d="M185.9-48.1c-0.2,0.6-0.8,1-1.5,0.8c-0.1,0-0.1,0-0.2-0.1l-0.1,0.1c-1.1,0.3-2.2-0.2-2.6-1.3
			c-0.4-1,0-2.2,1-2.7c0.9-0.5,2-0.3,2.8,0.4C186-50.1,186.2-49.1,185.9-48.1z"/>
		<path class="st1" d="M194.4-68.1c2.6-1.8,6,1,4.4,3.8c-0.8,1.4-2.8,0.2-2.1-1.2c0.4-0.8-0.8-0.9-1.2-0.3c-0.6,1,0.4,1.9,1.2,2.1
			c1.5,0.3,0.9,2.7-0.6,2.3C193.2-62.1,191.6-66.2,194.4-68.1z"/>
		<path class="st1" d="M211.4-55.1L211.4-55.1L211.4-55.1L211.4-55.1L211.4-55.1L211.4-55.1L211.4-55.1z M213.8-54.3
			c0.4-2-1.6-4.2-3.7-3.2c-1.2,0.7-1.7,2.2-1,3.4c0.2,0.3,0.4,0.6,0.8,0.9c0.6,0.3,1.3,0.1,1.7-0.4c0-0.1,0.1-0.2,0.1-0.3
			c0.2,0.2,0.4,0.4,0.6,0.5C212.9-53.3,213.6-53.7,213.8-54.3L213.8-54.3z"/>
		<polygon class="st1" points="211.2,-55.3 211.2,-55.3 211.2,-55.3 211.2,-55.3 		"/>
		<polygon class="st1" points="211.4,-55.2 211.4,-55.1 211.4,-55.1 211.4,-55.2 		"/>
		<path class="st1" d="M211.2-55.3"/>
		<path class="st1" d="M211.4-55.2L211.4-55.2v0.1V-55.2z"/>
		<path class="st1" d="M199.3-15.8c1.5-0.3,2.2,2,0.6,2.3c-1.7,0.5-3.6-0.5-4.1-2.3c-0.5-1.7,0.5-3.6,2.3-4.1c1.5-0.4,3,0.2,3.8,1.6
			c0.3,0.6,0,1.3-0.6,1.6c-0.5,0.3-1.2,0.1-1.5-0.4c-0.2-0.4-0.7-0.7-1.2-0.5c-0.4,0.2-0.7,0.7-0.5,1.2
			C198.4-15.9,198.8-15.6,199.3-15.8L199.3-15.8z"/>
		<path class="st1" d="M140.1-115.7c1.5,1,1.8,3,0.8,4.5c-0.2,0.3-0.5,0.6-0.9,0.8c-2.3,1.3-5-1.1-4.5-3.6c0.4-1.5,2.7-0.9,2.3,0.7
			c-0.1,0.5,0.6,1,0.9,0.8c0.3-0.3,0.3-0.8,0.1-1.1C137.6-114.5,138.8-116.6,140.1-115.7z"/>
		<path class="st1" d="M144.9-82.5c0,0.7-0.5,1.2-1.2,1.2c-0.7,0-1.2-0.5-1.2-1.2c0.1-0.6-0.4-1.4-1.1-1.1c-0.4,0.3-0.6,0.9-0.3,1.3
			c0.8,1.3-1.3,2.5-2.1,1.2c-0.9-1.6-0.4-3.7,1.2-4.6c0.2-0.1,0.3-0.2,0.5-0.2c1.8-0.5,3.6,0.5,4.1,2.3
			C144.9-83.2,144.9-82.8,144.9-82.5z"/>
		<path class="st1" d="M141.5-0.1c-0.2-0.5-0.2-1.1-0.1-1.6c0.3-1,1.1-1.8,2.1-2c2.1-0.6,4.3,0.2,5.5,2c0.3,0.4,0.3,1.1-0.2,1.4
			c-0.1,0.1-0.2,0.1-0.2,0.1h-1.4c-0.1-0.1-0.2-0.2-0.3-0.3c-0.5-0.7-1.3-1.1-2.2-1c-0.3,0-0.8,0.1-0.9,0.4s0.2,0.7,0.4,1L141.5-0.1
			z"/>
		<path class="st1" d="M147.4-49.4c1.4-1.6,3.6-1.1,5.2-0.1c1.3,0.8,0.1,2.9-1.2,2.1c-0.5-0.4-1.1-0.7-1.8-0.6
			c-0.2,0-0.3,0.2-0.4,0.2l0,0c1.4,0.2,1.4,2.5-0.1,2.4c-1.3-0.1-2.4-1.3-2.3-2.6C146.8-48.5,147.1-49,147.4-49.4z"/>
		<path class="st1" d="M149.2-47.8L149.2-47.8z"/>
		<path class="st1" d="M212.9-85.7c0.9,2.3,0.3,5.2-2.2,6.2c-1.7,0.7-3.7-0.1-4.4-1.8c-0.2-0.5-0.3-0.9-0.3-1.4
			c0.1-1.5,2.6-1.6,2.4,0c-0.1,1.1,1,1.3,1.8,0.7c0.9-0.8,0.7-2.1,0.3-3.1C210-86.5,212.4-87.2,212.9-85.7z"/>
		<path class="st1" d="M223.5-69.6c1.6-0.1,1.6,2.3,0,2.4c-2.4,0.1-3.3-3-1.6-4.4c1.9-1.6,4.5-0.2,5.4,1.8c0.3,0.6,0.1,1.3-0.4,1.7
			c-0.6,0.3-1.3,0.1-1.7-0.4c-0.2-0.6-0.7-1.4-1.4-1.3c-0.2,0-0.3,0.1-0.4,0.2C223.4-69.7,223.4-69.6,223.5-69.6z"/>
		<path class="st1" d="M241.5-52.3c0.1,0,0.2,0.1,0.3,0.1v2.4c-0.7,0-1.3-0.2-1.9-0.6c-0.8-0.5-1.3-1.5-1.2-2.4
			c0.2-1.7,1.7-2.2,3.1-2.1v2.4c-0.2,0-0.3,0-0.5,0h-0.2l0,0C241.3-52.4,241.3-52.4,241.5-52.3z"/>
		<path class="st1" d="M232.1-99.9c-0.3,0-0.4-0.2-0.3-0.4c0,0,0.1-0.1,0.1-0.1s0.2,0.2,0.2,0.2C232.1-100.1,232.1-100,232.1-99.9
			L232.1-99.9z M230-101.9c-0.8,0.9-0.9,2.2-0.3,3.2c0.7,1,1.9,1.4,3,1.2c0.5-0.1,0.9-0.7,0.9-1.2c0.4-0.1,0.7-0.4,0.8-0.8
			c0.3-1.2-0.3-2.4-1.4-2.9C232-103.1,230.8-102.8,230-101.9L230-101.9z"/>
		<path class="st1" d="M198.6-89.8c0.6,1.4-1.8,2.1-2.3,0.6c-0.5-1.2-2.4-1.8-3-0.4c-0.7,1.7,1.6,1.9,2.8,2c0.7,0,1.2,0.5,1.2,1.2
			c0,0.7-0.5,1.2-1.2,1.2c-1.6-0.1-3.4-0.2-4.6-1.6c-0.9-1.2-1-2.9-0.2-4.2C193.1-94.1,197.4-92.8,198.6-89.8z"/>
		<path class="st1" d="M122.6-85.7c-0.4,0.5-1.2,0.5-1.6,0c0,0,0,0,0,0v-4.9c0.2,0.1,0.3,0.2,0.4,0.3
			C122.8-89.3,124.1-87.2,122.6-85.7z"/>
		<path class="st1" d="M122-49.8c-0.4,0-0.7,0-1.1,0v-2.4c0.4,0,0.7,0,1.1,0C123.5-52.3,123.5-49.9,122-49.8z"/>
		<path class="st1" d="M121.4-52.5l-0.5-0.1V-55c0.4,0,0.8,0.1,1.2,0.1C123.6-54.5,122.9-52.2,121.4-52.5z"/>
		<path class="st1" d="M153.8-1.5c-0.1-1.6,2.3-1.6,2.4,0c0.1,0.5,0.4,1,0.9,1.1c0.2,0.1,0.4,0.1,0.6,0.1h0.2
			c-0.5-0.5-0.4-1.3,0.1-1.8c0.3-0.3,0.7-0.4,1.1-0.3c1,0.2,1.7,1.2,1.6,2.2h-6.5C153.9-0.5,153.8-1,153.8-1.5z"/>
		<path class="st1" d="M75.3-240.6c-0.5-0.4-0.9-0.8-1.2-1.3h3.3C77.8-240.9,76.4-239.7,75.3-240.6z"/>
		<path class="st1" d="M6.5-239.8c-0.9-0.4-1.7-1.1-2-2.1h3.1C8.4-241.1,7.8-239.3,6.5-239.8z"/>
		<path class="st1" d="M120.9-241.8v1c-0.2,0.6-0.9,0.9-1.5,0.7c-0.2-0.1-0.3-0.2-0.4-0.3c-0.3-0.3-0.9-0.9-1.4-0.8
			c-0.1,0-0.4,0.2-0.3,0.3c0.7,1.4-1.4,2.6-2.1,1.2c-0.3-0.7-0.4-1.5-0.1-2.2C115-241.8,120.9-241.8,120.9-241.8z"/>
		<path class="st1" d="M23.5-241.5c0.9,1.3-1.2,2.5-2.1,1.2c-0.3-0.5-0.6-1-0.8-1.6h2.7L23.5-241.5z"/>
		<path class="st1" d="M0-240.9v-1C0.2-241.5,0.2-241.2,0-240.9z"/>
		<path class="st1" d="M120.9-229.9v0.9C120.8-229.3,120.8-229.7,120.9-229.9z"/>
		<path class="st1" d="M120.9-227v2.7c-0.3-0.1-0.5-0.3-0.8-0.4c-0.6-0.4-0.7-1.1-0.4-1.7C120-226.8,120.4-227,120.9-227z"/>
		<path class="st1" d="M19.3-136.6c1.5,0.3,0.9,2.6-0.6,2.3c-2.1-0.4-4.6-1.4-5-3.8s1.6-4.4,3.8-4.9c1.8-0.4,5.5-0.8,6,1.6
			s-2.1,4.1-4.2,4.3c-1.5,0.1-1.5-2.3,0-2.4c0.5,0,1.1-0.2,1.4-0.6c0.5-0.7,0.2-0.6-0.3-0.7c-1.2-0.2-2.4,0-3.5,0.7
			c-0.9,0.6-1.2,1.6-0.3,2.4C17.4-137,18.3-136.7,19.3-136.6z"/>
		<path class="st1" d="M30.1-133.8c1.5,0.2,1.5,2.6,0,2.4c-1.5-0.1-2.7-1.3-2.9-2.8c-0.1-1.6,1-3.1,2.5-3.7c2-0.8,4.2,0.1,5,2.1
			c0.4,1,0.4,2.1,0,3c-0.6,1.4-2.7,0.2-2.1-1.2c0.5-1.1-0.8-1.9-1.7-1.8c-0.5,0.1-1,0.4-1.2,0.8C29.6-134.6,29.6-133.8,30.1-133.8z"
			/>
		<path class="st1" d="M77-121.4c0.1,0.1,0.3,0.3,0.3,0.4h-3.2c-0.8-1-1.1-2.3-1.1-3.6c0.1-1.9,1.6-3.4,3.5-3.4
			c2.9-0.1,8.3,4.2,4.6,6.8c-1.3,0.9-2.5-1.2-1.2-2.1c0.4-0.3-1.4-1.6-1.5-1.6c-0.6-0.5-1.5-0.7-2.3-0.5
			C74.2-124.6,76.2-122.1,77-121.4z"/>
		<path class="st1" d="M63.8-141.3c-1.5,0.2-1.5-2.2,0-2.4c1.5-0.2,3.6-0.1,4.6,1.1c0.8,1.1,0.7,2.7-0.1,3.8c-1.4,1.9-4,2.3-6,1
			c-0.4-0.3-0.8-0.7-1.1-1.2c-0.9-1.3,1.2-2.5,2.1-1.2c0.6,0.8,1.7,1.1,2.5,0.5c0.1-0.1,0.2-0.2,0.3-0.3
			C67.5-141.6,64.7-141.4,63.8-141.3z"/>
		<path class="st1" d="M46.6-162.1c1.9-1.1,4.3-1,6.2,0.2c1.9,1.2,2.7,3.4,1.2,5.3c-1,1.2-2.7-0.5-1.7-1.7c0.8-1-1.7-2-2.2-2
			c-1-0.2-2,0.1-2.7,0.8c-1.4,1.4-0.8,3.9,1.3,3.9c0.7,0,1.2,0.5,1.2,1.2c0,0.7-0.5,1.2-1.2,1.2C43.8-153.4,42.7-159.7,46.6-162.1z"
			/>
		<path class="st1" d="M60.3-156.3c-0.9-1.2,1.2-2.4,2.1-1.2c0.7,0.8,1.9,0.9,2.8,0.3c0.4-0.3,0.8-0.7,1-1.1
			c0.5-0.8-0.2-0.4-0.7-0.1c-1.4,0.7-2.6-1.4-1.2-2.1c1.4-0.7,3.1-1.1,4.2,0.3c0.9,1.2,0.2,2.8-0.7,3.9c-1.5,2.1-4.4,2.5-6.5,1
			C60.9-155.7,60.6-156,60.3-156.3z"/>
		<path class="st1" d="M86.8-144.1c-2.2-1.9-1.2-5.6,1.4-6.4s7,1.2,5.8,4.5c-0.5,1.5-2.8,0.8-2.3-0.6c0.5-1.3-2-1.9-2.9-1.5
			c-0.7,0.3-1.1,1.1-0.8,1.8c0.1,0.2,0.2,0.4,0.4,0.6C89.7-144.8,88-143.1,86.8-144.1z"/>
		<path class="st1" d="M97.8-134.6l-0.8,0.1c-0.5,0-0.9-0.3-1.1-0.7c-0.2,0.2-0.4,0.4-0.4,0.7c-0.2,0.6-0.8,1-1.5,0.9
			c-0.6-0.2-1-0.8-0.8-1.5c0.3-1.7,2-2.8,3.7-2.5c0.7,0.1,1.3,0.5,1.8,1c0.5,0.5,0.4,1.3-0.1,1.7C98.4-134.7,98.1-134.6,97.8-134.6z
			"/>
		<path class="st1" d="M21.5-159.6c-1.8,0.4-0.8,2.1,0.1,2.9c1.2,1-0.5,2.7-1.7,1.7c-2.5-2-2.6-6.1,1-7c2.4-0.6,4.9,0.8,5.6,3.2
			c0.2,0.8,0.2,1.5,0,2.3c-0.2,0.6-0.9,1-1.5,0.8c-0.6-0.2-1-0.8-0.8-1.4c0.3-1.1-0.5-2.3-1.6-2.6C22.2-159.7,21.8-159.7,21.5-159.6
			z"/>
		<path class="st1" d="M33.8-147.4c-1.7,0.8-3.9,0.3-4.6-1.6c-0.5-1.5,1.8-2.1,2.3-0.6c0.1,0.2,0.7,0.2,0.8,0.1
			c0.2,0,0.4-0.1,0.6-0.2c-0.6-0.4-0.7-1.1-0.3-1.7c0.3-0.4,0.8-0.6,1.3-0.5c1,0.2,1.7,1.2,1.6,2.2
			C35.5-148.7,34.8-147.8,33.8-147.4z"/>
		<path class="st1" d="M42.8-170.2c1.2,1-0.5,2.7-1.7,1.7c-1.5-1.3-2.8-2.9-2.8-5c0-1.8,1.2-3.3,2.9-3.7c3.6-0.9,7.9,3.2,5,6.5
			c-1,1.2-2.7-0.5-1.7-1.7c1.3-1.5-2.2-3.3-3.4-2.1C39.7-173.2,41.8-171.1,42.8-170.2z"/>
		<path class="st1" d="M26.6-183.3c-0.5-0.5-4-2.8-4.5-1.3s-2.8,0.8-2.3-0.6c1.5-4.6,9.7-0.9,10,2.8c0.4,4.8-9.2,5.2-8.6,0.5
			c0.2-1.5,2.5-0.9,2.3,0.6c0,0.2,2.3,0.2,2.6,0.1c0.5,0,0.9-0.3,1.1-0.7C27.5-182.5,27-182.8,26.6-183.3z"/>
		<path class="st1" d="M10.2-198.7c1.5-0.4,3.4-0.1,4.3,1.3c0.8,1.3,0.4,3-0.8,3.8c0,0,0,0,0,0c-1.4,0.7-2.6-1.4-1.2-2.1
			c0.1-0.1,0.1-0.3,0-0.5c-0.4-0.4-1.3-0.2-1.8-0.1c-1.6,0.5-0.8,1.9,0.4,2.3c1.4,0.5,0.8,2.9-0.6,2.3c-1.6-0.4-2.8-1.8-3.1-3.5
			C7.2-196.9,8.5-198.4,10.2-198.7z"/>
		<path class="st1" d="M31.7-200.6c1.5,0,2.9,0.9,3.5,2.3c0.5,1.3,0,2.9-1.2,3.6c-0.6,0.3-1.3,0.1-1.7-0.4s-0.1-1.3,0.4-1.7
			c1-0.6-0.9-1.4-1.4-1.4c-1.4,0.1-0.2,2,0.4,2.4c1.2,1-0.5,2.7-1.7,1.7c-1.2-1-1.8-2.5-1.7-4C28.6-199.7,30.1-200.8,31.7-200.6
			C31.7-200.6,31.7-200.6,31.7-200.6z"/>
		<path class="st1" d="M61.9-184.1c0.8,1.1,0.6,2.6-0.5,3.4c-0.4,0.3-0.8,0.4-1.3,0.5c-1.5,0-1.5-2.2-0.1-2.4l0,0
			c-0.1-0.1-0.2-0.3-0.3-0.4c-0.2-0.1-0.3-0.2-0.5-0.3c-0.5-0.2-1-0.2-1.5,0c-0.5,0.3-0.8,1.4-0.2,1.7c0.6,0.2,1,0.8,0.8,1.5
			c-0.2,0.6-0.8,1-1.5,0.8c-1.7-0.7-2.6-2.8-1.8-4.5c0.5-1.1,1.4-1.8,2.6-2C59.3-186.1,61-185.4,61.9-184.1z"/>
		<path class="st1" d="M73.4-172c0.6-0.3,1.3-0.1,1.6,0.4c0.2,0.3,0.2,0.6,0.1,0.9l0.1,0.1l0.3,0.3c0.2,0.3,0.5,0.5,0.8,0.8
			c0.6,0.5,1.6,0.4,2.1-0.2c0.6-0.8,0.8-3-0.2-3.5c-1.4-0.7-0.2-2.8,1.2-2.1c2.8,1.5,2.3,6.9-0.5,8.2c-1.7,0.7-3.6,0.3-4.8-1
			C73.2-169.1,71.8-170.9,73.4-172z"/>
		<path class="st1" d="M98.7-164.1c0.3,1.6-0.7,3.2-2.2,3.6c-0.7,0.1-1.3-0.3-1.4-0.9c-0.1-0.6,0.2-1.2,0.8-1.4
			c1.2-0.3,0.1-1.8-1-1.3c-1.6,0.7-0.9,2.8-0.1,3.8c1,1.2-0.7,2.9-1.7,1.7c-1.3-1.4-1.8-3.4-1.3-5.2c0.5-1.6,2-2.7,3.7-2.8
			C97-166.7,98.3-165.6,98.7-164.1z"/>
		<path class="st1" d="M99.2-124.7c-0.9-1.4-0.5-3.3,1-4.2c0.3-0.2,0.6-0.3,0.9-0.4c1.4-0.3,2.8,0.7,3,2.1c0.1,0.5,0,1.1-0.2,1.6
			c-0.3,0.6-1.1,0.8-1.6,0.5s-0.8-1.1-0.5-1.6l0,0l0,0c0.1,0.1-0.1-0.2,0-0.1c-0.1-0.2-0.1-0.1,0,0c-0.1,0-0.2,0-0.2,0
			c-0.1,0.1-0.2,0.2-0.3,0.3c-0.1,0.2,0,0.5,0.1,0.7C102-124.6,99.9-123.3,99.2-124.7z"/>
		<path class="st1" d="M107.2-145.9c0.1-0.2,0.3-0.3,0.5-0.3c0.2,0.1,0.3,0.3,0.3,0.5c0,0.2,0,0.3,0,0.5h-0.1
			c-0.3,0.1-0.6-0.1-0.7-0.4C107.2-145.7,107.2-145.8,107.2-145.9L107.2-145.9z M109.7-144.3c0.3-0.1,0.6-0.4,0.6-0.8
			c0.3-1.4-0.4-2.8-1.7-3.4c-1.3-0.5-2.7,0-3.4,1.1c-0.7,1.1-0.6,2.6,0.4,3.6c1,0.9,2.4,1.1,3.6,0.6
			C109.6-143.4,109.8-143.8,109.7-144.3z"/>
		<path class="st1" d="M53.8-129.7c0.7-0.1,1.3,0.3,1.4,0.9c0.1,0.6-0.2,1.2-0.8,1.4c-2.2,0.7-3.8-1.9-2.8-3.7
			c1.3-2.3,4.1-1.7,6-0.8c0.6,0.3,0.8,1.1,0.4,1.7s-1.1,0.8-1.7,0.4c-0.7-0.4-1.5-0.6-2.3-0.4C54-130.1,53.6-129.6,53.8-129.7z"/>
		<path class="st1" d="M46-145.7c0-0.7,0.5-1.2,1.2-1.2c1-0.2,2.1,0,3,0.4c0.8,0.5,1.3,1.3,1.4,2.2c0.1,0.9-0.3,1.7-1,2.2
			c-1.1,0.5-2.3,0.3-3.2-0.5c-0.6-0.4-0.7-1.1-0.4-1.6c0.1-0.1,0.1-0.2,0.2-0.2C46.5-144.5,46-145,46-145.7z"/>
		<path class="st1" d="M2.8-160.1c0.2-0.6,0.8-1,1.5-0.8c0.6,0.3,1.3,0.3,1.9,0h0.1C6-161,5.7-161,5.4-161.1c-1.5-0.1-1.6-2.5,0-2.4
			c1,0,1.9,0.3,2.7,0.9c0.7,0.7,0.9,1.8,0.5,2.7c-0.9,1.6-3.3,2-4.9,1.4C3-158.7,2.6-159.4,2.8-160.1C2.8-160.1,2.8-160.1,2.8-160.1
			z"/>
		<path class="st1" d="M53.8-214.6c1.6-1.2,3.8-0.9,4.9,0.7c0.5,0.7,0.8,1.5,0.7,2.3c-0.1,1.5-2.5,1.6-2.4,0c0.1-1-0.9-1.8-1.8-1.1
			c-0.5,0.5-0.6,1.2-0.1,1.8c0.2,0.2,0.4,0.3,0.6,0.4c1.5,0.5,0.8,2.8-0.6,2.3c-2-0.5-3.1-2.6-2.6-4.5
			C52.8-213.4,53.2-214.1,53.8-214.6z"/>
		<path class="st1" d="M70.6-194.5c-1,1.1-2.8-0.6-1.7-1.7c-0.2,0.2-0.3,0-0.6-0.1c-0.3-0.1-0.5-0.1-0.8-0.1c-0.5-0.1-1,0.1-1.4,0.4
			c-1.1,1.2,1.4,2,2.1,2.1c1.5,0.3,0.9,2.6-0.7,2.3c-1.7-0.2-3.2-1.3-3.8-2.8c-0.5-1.5,0.1-3.2,1.6-3.9c1.4-0.6,3-0.6,4.4,0
			c1.2,0.5,1.9,1.8,1.4,3.1C70.9-195,70.8-194.7,70.6-194.5z"/>
		<path class="st1" d="M93.1-188.9c-0.6,1-1.5,1.7-2.6,1.9c-2.2,0.5-4.5-0.7-5.3-2.9c-0.6-1.4,1.7-2.1,2.3-0.6
			c0.4,1,1.5,1.5,2.5,1.1c0.1,0,0.2-0.1,0.3-0.1c-1.2-0.8,0-2.7,1.3-2C92.5-191.1,93.6-189.9,93.1-188.9z"/>
		<path class="st1" d="M99.3-206.2c0.7-0.6,1.6-0.8,2.5-0.3c0.4,0.2,2.3,1.7,1,2c-0.3,0.1-0.5,0.2-0.7,0.4c-0.4-0.2-1-0.1-1.3,0.2
			c-0.6,0.4-1.3,0.3-1.8-0.3C98.7-204.9,98.8-205.7,99.3-206.2L99.3-206.2z M98.1-208.3c-1.8,1.3-2.3,3.9-1,5.7c0,0,0,0,0,0
			c1.3,1.6,3.7,1.8,5.3,0.4c0,0,0,0,0,0c0,0,0.1,0,0.1-0.1c0.3,0.1,0.6,0.2,0.8,0.1c2.7-0.6,2.6-3.8,1-5.5
			C102.8-209.4,100.1-209.7,98.1-208.3z"/>
		<path class="st1" d="M96.3-221.1c-0.8,0.1-1-0.8-0.2-1.1c0.5-0.2,1.7,0.5,1.4,0.9c-0.2,0.2-0.3,0.4-0.3,0.6
			C96.9-221,96.6-221.1,96.3-221.1z M93.2-220.9c0.3,1.4,1.6,2.4,3.1,2.3c0.6,0,1.1-0.4,1.2-1c0.4,0.5,1.1,0.5,1.6,0c0,0,0,0,0,0
			c1-1.1,0.9-2.8-0.1-3.9c-1-1.1-2.6-1.5-4-0.9C93.7-223.8,93-222.3,93.2-220.9z"/>
		<path class="st1" d="M33.6-228.6c0.2,1.6-0.9,3-2.5,3.2c-0.3,0-0.7,0-1,0c-0.6-0.2-1-0.9-0.8-1.5c0.2-0.6,0.8-0.9,1.4-0.8
			c0.8,0.2,0.3-1,0-1.2c-0.6-0.4-1.3-0.4-2-0.2c-0.7,0.1-1.3,0.6-1.5,1.2c-0.2,0.6,0,1.2,0.6,1.6c1.4,0.6,0.8,2.9-0.6,2.3
			c-1.8-0.7-2.8-2.7-2.2-4.5c0.7-1.9,2.5-3.2,4.6-3.1C31.3-231.7,33.4-230.6,33.6-228.6z"/>
		<path class="st1" d="M16.2-220.3c1.7,0.2,3.1,1.4,3.5,3.1c0.2,1.6-0.8,3.1-2.3,3.5c-1.5,0.3-2.2-2-0.6-2.3c0.4,0,0.7-0.4,0.6-0.8
			c0,0,0-0.1,0-0.1c-0.2-0.6-0.8-0.9-1.4-1c-0.6-0.1-1.1,0.1-1.5,0.4c-0.2,0.3-0.2,0.7,0.1,0.9c0,0,0,0,0,0c0.6,0.3,0.8,1.1,0.4,1.7
			c-0.3,0.6-1.1,0.8-1.7,0.4c-1.3-0.8-1.8-2.5-1.2-3.9C12.9-219.8,14.6-220.6,16.2-220.3z"/>
		<path class="st1" d="M103.6-175.9c-0.7-1.3-0.2-3,1.2-3.7c2.1-1.2,4.8-0.4,5.9,1.7c0.1,0.2,0.2,0.4,0.3,0.7
			c0.5,1.5-1.8,2.1-2.3,0.6c-0.3-0.8-1.2-1.3-2.1-1.2c-0.3,0-0.9,0.2-0.9,0.6c0,0.7,1.6,0.6,2,0.6c0.7,0,1.2,0.5,1.2,1.2
			c0,0.7-0.5,1.2-1.2,1.2C106.2-174.1,104.4-174.4,103.6-175.9z"/>
		<path class="st1" d="M63.4-223.3c0.7-0.6,1.7-0.7,2.5-0.2c0.8,0.5,1.3,1.3,1.3,2.3c0,0.6-0.6,1.2-1.2,1.2h-0.2
			c-0.2,0.2-0.4,0.3-0.6,0.4c-0.9,0.3-1.9-0.2-2.4-1C62.3-221.6,62.6-222.7,63.4-223.3z"/>
		<path class="st1" d="M37.3-213.9c0.9,1.3-1.2,2.5-2.1,1.2c-0.4-0.6-1.2-1.4-2-1.1c-0.3,0.1-0.8,0.7-0.6,1c1,1.2-0.7,2.9-1.7,1.7
			c-1.1-1.4-0.8-3.3,0.5-4.4c0.2-0.1,0.3-0.2,0.5-0.3C33.9-217,36.1-215.6,37.3-213.9z"/>
		<path class="st1" d="M45.4-200.8c0.9,0,1.9,0.3,2.5,1c0.7,0.7,0.8,1.8,0.4,2.7c-0.3,0.6-1.1,0.8-1.7,0.4c-0.6-0.3-0.8-1.1-0.4-1.6
			c-0.1,0.3-0.2,0.1-0.5,0h-0.4c0,0.2,0,0.4-0.2,0.6c-0.3,0.6-1.1,0.8-1.7,0.4c-0.8-0.5-1.1-1.6-0.6-2.4
			C43.5-200.5,44.5-200.9,45.4-200.8z"/>
		<path class="st1" d="M10.7-175.3c0,0.7-0.5,1.2-1.2,1.2c-0.7,0-1.2-0.5-1.2-1.2c0-0.2-0.1-0.5-0.2-0.7c-0.1,0.2-0.2,0.3-0.3,0.4
			c-0.7,0.7-1.9,0.7-2.5-0.1c-0.1-0.1-0.2-0.2-0.3-0.4c-0.5-1-0.1-2.2,0.9-2.7c0.1-0.1,0.2-0.1,0.3-0.1
			C8.4-179.6,10.7-177.6,10.7-175.3z"/>
		<path class="st1" d="M7.2-121.2c0.2,0.1,0.3,0.2,0.4,0.3H4.5c-0.6-1.5-0.1-3.1,1.2-4.1c2.7-2.1,6-0.4,7.9,2
			c0.4,0.6,0.3,1.4-0.3,1.9c-0.1,0.1-0.3,0.2-0.5,0.2h-0.4c-0.2-0.1-0.4-0.2-0.6-0.4c-0.9-1.1-2-2.3-3.5-2.2c-0.6,0-1.2,0.3-1.6,0.9
			C6.5-122.2,6.6-121.4,7.2-121.2z"/>
		<path class="st1" d="M1.1-230.7c1.5-0.1,3,0.3,4.2,1.1c1.1,0.8,1.6,2.3,1.2,3.6c-0.5,1.2-1.5,2.1-2.8,2.4
			c-1.3,0.2-2.6-0.1-3.7-0.7v-2.7c0.2,0,0.3,0.1,0.4,0.2c0.8,0.5,3.2,1.7,3.7,0.2s-2.3-1.6-3.1-1.6c-0.5,0-0.9-0.3-1.1-0.8v-0.9
			C0.2-230.4,0.6-230.7,1.1-230.7z"/>
		<path class="st1" d="M48-237.3c2.8-0.8,5,1.9,4.8,4.5c-0.2,1.5-2.6,1.6-2.4,0c0.1-0.9-0.2-2.3-1.4-2.2c-0.7,0-1.1,0.8-0.4,1.2
			c1.4,0.6,0.2,2.7-1.2,2.1C44.9-232.9,45.5-236.6,48-237.3z"/>
		<path class="st1" d="M39.7-241.5c-0.4,1.1-1.5,1.8-2.6,1.8c-1.6,0.1-3.1-0.8-3.8-2.2h6.5C39.7-241.7,39.7-241.6,39.7-241.5z"/>
		<path class="st1" d="M44.4-223.8c1.6-0.2,3,0.8,3.3,2.4c0,0.3,0,0.6,0,1c-0.4,1.5-2.7,0.9-2.3-0.6c0-0.2-0.3-0.3-0.5-0.3
			c-0.3,0-0.5,0-0.7,0.1l0,0c0.1,0.6-0.4,1.2-1.1,1.2c-0.3,0-0.5,0-0.7-0.2c-0.8-0.5-1-1.5-0.5-2.2c0,0,0.1-0.1,0.1-0.1
			C42.6-223.4,43.5-223.8,44.4-223.8z"/>
		<path class="st1" d="M102.4-236.3c2.9-2.6,7.3,0.6,6.6,4.1c-0.3,1.5-2.6,0.9-2.3-0.6c0.1-1-0.7-1.8-1.7-1.9c-0.2,0-0.4,0-0.6,0.1
			c-0.9,0.4-0.8,2,0.1,1.5c1.4-0.8,2.6,1.3,1.2,2.1c-1.4,0.8-3.1,0.4-4-0.9C100.9-233.4,101.2-235.2,102.4-236.3z"/>
		<path class="st1" d="M115.1-212c1.9-0.9,4.1-0.7,5.8,0.5v4.9c-0.5-0.4-0.5-1.1-0.1-1.6c0,0,0.1-0.1,0.1-0.1
			c0.2-0.2-1.8-1.5-2.1-1.6c-0.9-0.4-1.8-0.3-2.7,0.1c-0.8,0.4-1.2,1.3-1,2.2c0.4,1.2,1.7,1.1,2.7,1.1c0.7,0.1,1.2,0.6,1.1,1.3
			c-0.1,0.6-0.5,1-1.1,1.1c-2.2,0-4.4-0.5-5-2.8C112.3-208.9,113.3-211,115.1-212z"/>
		<path class="st1" d="M111.3-186.1c-1.7-1.9-1.6-5.2,1.1-6.2c2.3-0.9,5,1.4,4,3.8c-0.6,1.4-2.9,0.8-2.3-0.6
			c0.2-0.3,0.1-0.7-0.2-0.9c-0.2-0.1-0.5-0.1-0.8,0.1c-0.6,0.4-0.8,1.3-0.3,1.9c0.1,0.1,0.1,0.2,0.2,0.2
			C114.1-186.6,112.4-184.9,111.3-186.1z"/>
		<path class="st1" d="M79.2-223.6c-0.7-0.2-1.3-0.7-1.7-1.3c0.5-0.5,1.2-0.7,1.9-0.7c0.7,0,2.3,0.4,2.1,1.3S79.9-223.4,79.2-223.6z
			 M74.9-224.7c0.7,1.9,2.3,3.3,4.4,3.7c1.8,0.3,4.1-0.6,4.6-2.5c0.6-2.1-1.3-3.8-3.2-4.2c-1.9-0.4-3.9,0.2-5.2,1.7
			c-0.1,0.1-0.2,0.2-0.2,0.3C74.9-225.6,74.8-225.1,74.9-224.7z"/>
		<path class="st1" d="M66.5-238.9c1.5,0.6,2.2,2.2,1.6,3.7c-0.3,0.8-0.9,1.4-1.7,1.7c-1.5,0.5-2.1-1.8-0.6-2.3
			c0.2-0.1,0.2-0.4,0.1-0.5s-0.4-0.3-0.6-0.3c-1-0.1-1.3,1-1.4,1.8c0,0.7-0.5,1.2-1.2,1.2c-0.7,0-1.2-0.5-1.2-1.2
			C61.6-237.5,63.8-240,66.5-238.9z"/>
		<path class="st1" d="M89.8-232.4c-0.3-0.1-0.5-0.3-0.7-0.5c-0.4,0.4-1.1,0.6-1.7,0.4c-0.6-0.2-1-0.7-1.2-1.3
			c-0.2-1.1,0.4-2.2,1.4-2.7c1-0.5,2.1-0.3,2.9,0.4c0.8,0.7,1,1.8,0.7,2.8C91-232.6,90.4-232.3,89.8-232.4z"/>
		<path class="st1" d="M115-159.5c-0.4,0-2.8-0.4-1.9-1.1c0.6-0.3,1.3-0.4,1.9-0.3c0.2,0,1,0.4,0.9,0.8c-0.2,0.3-0.2,0.7-0.1,1.1
			C115.6-159.4,115.3-159.5,115-159.5z M110.9-158.9c0.9,1.4,2.6,1.7,4.1,1.8c0.6,0,1.1-0.5,1.1-1.1c0-0.2,0-0.4-0.1-0.6
			c0.1,0.1,0.2,0.2,0.3,0.2c0.6,0.3,1.3,0.1,1.7-0.4c0.7-1.5,0.1-3.2-1.3-3.9c-1.5-0.7-3.3-0.6-4.8,0.1c-1.3,0.7-1.8,2.3-1.1,3.6
			C110.8-159.1,110.8-159,110.9-158.9L110.9-158.9z"/>
		<path class="st1" d="M116.3-132.3c-1.4,0.6-2.6-1.5-1.2-2.1c1.3-0.7,3-0.1,3.6,1.2c0.6,1.4,0.1,3.1-1.3,3.9
			c-1.5,0.8-3.4,0.8-4.9-0.2c-1.3-0.7-2.1-2.3-0.9-3.6c0.4-0.5,1.2-0.6,1.7-0.2c0.5,0.4,0.6,1,0.3,1.5c0.1,0,0.1,0.1,0.1,0.1
			c0.2,0.1,0.5,0.2,0.8,0.3c0.4,0.2,0.9,0.2,1.3,0.1c0.3-0.1,0.7-0.3,0.7-0.6C116.6-131.9,116.6-132.4,116.3-132.3z"/>
		<path class="st1" d="M116.3-122.4c1.5-0.8,3.3,0,4.4,1.1c0.1,0.1,0.2,0.2,0.2,0.3H115C115.2-121.6,115.7-122.1,116.3-122.4z"/>
		<path class="st1" d="M5.6-147.1c0.1,0.1,0.2,0.2,0.3,0.3l-0.2-0.1c-0.2,0-0.3-0.2-0.3-0.3v-0.2c0-0.1,0-0.1,0-0.2
			c0,0.1,0-0.1,0.1-0.1l0,0C5.5-147.4,5.5-147.3,5.6-147.1L5.6-147.1z M6.2-146.7c0.3,0.2,0.8,0.2,1.1,0l0.6-0.3
			c0.6-0.3,0.8-1.1,0.4-1.6c-0.9-1.4-2.7-1.8-4.1-1c-0.2,0.2-0.5,0.3-0.7,0.6c-0.9,1.4-0.6,3.2,0.8,4.2c0.2,0.2,0.5,0.3,0.8,0.4
			c0.6,0.2,1.3-0.1,1.5-0.8C6.8-145.8,6.6-146.3,6.2-146.7L6.2-146.7z"/>
		<path class="st1" d="M45.3-184.9c-0.2,0.6-0.8,1-1.5,0.8c-1-0.3-1.6-1.3-1.5-2.3c0.2-1.2,1.1-2.1,2.3-2.2c2.1-0.3,4.6,1.8,3.4,4
			c-0.8,1.4-2.8,0.1-2.1-1.2c0,0.1,0,0-0.2-0.1c-0.2-0.1-0.4-0.2-0.6-0.3c-0.1,0-0.3,0-0.4,0.1C45.2-185.9,45.4-185.4,45.3-184.9z"
			/>
		<path class="st1" d="M78.2-155.4H78c-0.3,0.6-1,0.8-1.6,0.5c-0.2-0.1-0.4-0.3-0.5-0.4c-0.7-1.4-0.2-3,1.1-3.8
			c0.4-0.2,0.8-0.3,1.3-0.3c1.2,0,2.2,0.9,2.3,2.1c0,1.1-0.9,2-2,2C78.4-155.3,78.3-155.3,78.2-155.4z"/>
		<path class="st1" d="M65-169.1c-0.2,0.6-0.8,1-1.5,0.8l-0.2-0.1l-0.2,0.1c-1.1,0.3-2.2-0.2-2.6-1.3c-0.4-1,0-2.2,1-2.7
			c0.9-0.5,2-0.3,2.8,0.4C65.1-171.1,65.3-170,65-169.1z"/>
		<path class="st1" d="M73.5-189c2.6-1.8,6,0.9,4.4,3.8c-0.8,1.4-2.8,0.1-2.1-1.2c0.4-0.8-0.8-0.9-1.2-0.3c-0.6,1,0.3,1.9,1.2,2.1
			c1.5,0.3,0.9,2.7-0.6,2.3C72.3-182.9,70.7-187.1,73.5-189z"/>
		<path class="st1" d="M90.5-176.1L90.5-176.1L90.5-176.1L90.5-176.1L90.5-176.1L90.5-176.1L90.5-176.1z M92.9-175.3
			c0.4-2-1.6-4.2-3.7-3.2c-1.2,0.7-1.7,2.2-1,3.4c0.2,0.3,0.4,0.6,0.8,0.9c0.6,0.3,1.3,0.1,1.7-0.4c0-0.1,0.1-0.2,0.1-0.3
			c0.2,0.2,0.4,0.4,0.7,0.5C92-174.3,92.7-174.6,92.9-175.3L92.9-175.3z"/>
		<polygon class="st1" points="90.3,-176.2 90.3,-176.2 90.3,-176.2 90.3,-176.2 		"/>
		<polygon class="st1" points="90.5,-176.1 90.5,-176 90.5,-176 90.5,-176.1 		"/>
		<path class="st1" d="M90.3-176.2"/>
		<path class="st1" d="M90.5-176.1L90.5-176.1L90.5-176.1L90.5-176.1z"/>
		<path class="st1" d="M78.4-136.7c1.5-0.3,2.2,2,0.7,2.3c-1.7,0.5-3.6-0.5-4.1-2.3c-0.5-1.7,0.5-3.6,2.3-4.1
			c1.5-0.4,3.1,0.2,3.8,1.6c0.3,0.6,0.1,1.3-0.4,1.7s-1.3,0.1-1.7-0.4l0,0c-0.2-0.4-0.7-0.7-1.2-0.5s-0.7,0.7-0.5,1.2
			C77.5-136.7,77.9-136.5,78.4-136.7L78.4-136.7z"/>
		<path class="st1" d="M19.1-236.6c1.5,1,1.8,3,0.8,4.5c-0.2,0.3-0.5,0.6-0.9,0.8c-2.3,1.3-5-1.1-4.5-3.6c0.4-1.5,2.7-0.9,2.3,0.6
			c-0.1,0.5,0.6,1,1,0.8c0.3-0.3,0.3-0.8,0-1.1C16.6-235.4,17.9-237.5,19.1-236.6z"/>
		<path class="st1" d="M24-203.4c0,0.7-0.6,1.2-1.2,1.2c-0.7,0-1.2-0.5-1.2-1.2c0.1-0.6-0.4-1.4-1.1-1.1c-0.4,0.3-0.6,0.9-0.3,1.3
			c0.8,1.3-1.3,2.5-2.1,1.2c-0.9-1.6-0.4-3.7,1.2-4.6c0.2-0.1,0.3-0.2,0.5-0.2c1.8-0.5,3.6,0.6,4.1,2.3C24-204.1,24-203.7,24-203.4z
			"/>
		<path class="st1" d="M20.6-121c-0.2-0.5-0.2-1.1-0.1-1.6c0.3-1,1.1-1.8,2.1-2c2.1-0.6,4.3,0.3,5.5,2.1c0.4,0.4,0.3,1.1-0.1,1.4
			c-0.1,0.1-0.1,0.1-0.2,0.1h-1.4c-0.1-0.1-0.2-0.2-0.3-0.3c-0.5-0.7-1.3-1.1-2.2-1c-0.3,0-0.8,0.1-0.9,0.4s0.2,0.7,0.4,1L20.6-121z
			"/>
		<path class="st1" d="M26.5-170.3c1.4-1.6,3.6-1.1,5.2-0.1c1.3,0.8,0.1,2.9-1.2,2.1c-0.5-0.4-1.1-0.7-1.8-0.6
			c-0.2,0.1-0.3,0.2-0.4,0.2h-0.1h0.1l0,0l0,0c1.4,0.2,1.4,2.5-0.1,2.4c-1.3-0.1-2.4-1.3-2.2-2.6C26-169.4,26.2-169.9,26.5-170.3z"
			/>
		<path class="st1" d="M28.3-168.7L28.3-168.7z"/>
		<path class="st1" d="M92-206.6c0.9,2.3,0.3,5.2-2.2,6.2c-1.7,0.7-3.7-0.1-4.4-1.8c-0.2-0.5-0.3-0.9-0.3-1.4c0.1-1.6,2.5-1.6,2.4,0
			c-0.1,1.1,1,1.3,1.8,0.7c0.9-0.8,0.7-2.1,0.3-3.1C89.1-207.4,91.5-208.1,92-206.6z"/>
		<path class="st1" d="M102.6-190.5c1.6-0.1,1.6,2.3,0,2.4c-2.4,0.1-3.3-3-1.6-4.4c1.9-1.6,4.5-0.2,5.4,1.8c0.3,0.6,0.2,1.3-0.4,1.7
			c-0.6,0.3-1.3,0.1-1.7-0.4c-0.2-0.5-0.7-1.4-1.4-1.3C102.8-190.8,102.6-190.7,102.6-190.5C102.5-190.5,102.6-190.5,102.6-190.5z"
			/>
		<path class="st1" d="M120.6-173.2c0.1,0,0.2,0.1,0.3,0.1v2.4c-0.7,0-1.3-0.2-1.9-0.6c-0.8-0.5-1.3-1.5-1.2-2.4
			c0.2-1.7,1.7-2.2,3.1-2.1v2.4c-0.2,0-0.4,0-0.5,0h-0.2l0,0C120.4-173.3,120.4-173.3,120.6-173.2z"/>
		<path class="st1" d="M111.2-220.8c-0.3,0-0.4-0.2-0.3-0.4c0,0,0.1-0.1,0.1-0.1s0.2,0.2,0.2,0.2C111.2-221,111.2-220.9,111.2-220.8
			L111.2-220.8z M109.1-222.8c-0.8,0.9-0.9,2.2-0.3,3.2c0.7,1,1.9,1.4,3,1.2c0.5-0.1,0.9-0.7,0.9-1.2c0.4-0.1,0.7-0.4,0.8-0.8
			c0.3-1.2-0.3-2.4-1.4-2.9C111.1-223.9,109.9-223.7,109.1-222.8L109.1-222.8z"/>
		<path class="st1" d="M77.7-210.7c0.6,1.4-1.8,2.1-2.3,0.6c-0.5-1.2-2.4-1.9-3-0.4c-0.7,1.7,1.6,1.9,2.8,2c0.7,0,1.2,0.5,1.2,1.2
			c0,0.7-0.5,1.2-1.2,1.2c-1.7-0.1-3.4-0.2-4.6-1.6c-0.9-1.2-1-2.9-0.2-4.2C72.2-215.1,76.5-213.7,77.7-210.7z"/>
		<path class="st1" d="M1.7-206.6c-0.4,0.5-1.2,0.5-1.6,0c0,0,0,0,0,0v-4.9c0.2,0.1,0.3,0.2,0.4,0.3C1.9-210.2,3.2-208.1,1.7-206.6z
			"/>
		<path class="st1" d="M1.1-170.7c-0.4,0-0.7,0-1.1,0v-2.4c0.4,0,0.7,0,1.1,0C2.6-173.2,2.6-170.8,1.1-170.7z"/>
		<path class="st1" d="M0.5-173.4c-0.2,0-0.3-0.1-0.5-0.1v-2.4c0.4,0,0.8,0.1,1.1,0.1C2.7-175.4,2-173.1,0.5-173.4z"/>
		<path class="st1" d="M32.8-122.4c-0.1-1.6,2.3-1.6,2.4,0c0.1,0.5,0.4,1,0.9,1.1c0.2,0.1,0.4,0.1,0.6,0.1l0.2-0.1
			c-0.5-0.5-0.4-1.3,0.1-1.8c0.3-0.3,0.7-0.4,1.1-0.3c1.1,0.2,1.7,1.2,1.6,2.3h-6.5C33-121.4,32.9-121.9,32.8-122.4z"/>
		<path class="st1" d="M196.2-240.6c-0.5-0.4-0.9-0.8-1.2-1.3h3.3C198.7-240.9,197.3-239.7,196.2-240.6z"/>
		<path class="st1" d="M127.4-239.8c-1-0.4-1.7-1.1-2.1-2.1h3.1C129.4-241.1,128.7-239.3,127.4-239.8z"/>
		<path class="st1" d="M241.8-241.8v1c-0.2,0.6-0.9,0.9-1.5,0.7c-0.2-0.1-0.3-0.2-0.4-0.3c-0.3-0.3-0.9-0.9-1.4-0.8
			c-0.1,0-0.4,0.2-0.3,0.3c0.7,1.4-1.4,2.6-2.1,1.2c-0.3-0.7-0.4-1.5-0.1-2.2H241.8z"/>
		<path class="st1" d="M144.4-241.5c0.9,1.3-1.2,2.5-2.1,1.2c-0.3-0.5-0.6-1-0.8-1.6h2.6L144.4-241.5z"/>
		<path class="st1" d="M120.9-240.9v-1C121.1-241.5,121.1-241.2,120.9-240.9z"/>
		<path class="st1" d="M241.8-229.9v0.9C241.7-229.3,241.7-229.7,241.8-229.9z"/>
		<path class="st1" d="M241.8-227v2.7c-0.3-0.1-0.5-0.3-0.8-0.4c-0.6-0.4-0.7-1.1-0.4-1.7C240.9-226.8,241.3-227,241.8-227z"/>
		<path class="st1" d="M140.2-136.6c1.5,0.3,0.9,2.6-0.6,2.3c-2.1-0.4-4.6-1.4-5-3.8s1.6-4.4,3.8-4.9c1.8-0.4,5.5-0.8,6,1.6
			s-2.1,4.1-4.2,4.3c-1.6,0.1-1.5-2.3,0-2.4c0.5,0,1.1-0.2,1.4-0.6c0.5-0.7,0.3-0.6-0.3-0.7c-1.2-0.2-2.4,0-3.5,0.7
			c-0.9,0.6-1.2,1.6-0.3,2.4C138.3-137,139.2-136.7,140.2-136.6z"/>
		<path class="st1" d="M151-133.8c1.5,0.2,1.6,2.6,0,2.4c-1.5-0.1-2.7-1.3-2.9-2.8c-0.1-1.6,1-3.1,2.5-3.7c2-0.8,4.2,0.1,5,2.1
			c0.4,1,0.4,2.1,0,3c-0.6,1.4-2.7,0.2-2.1-1.2c0.5-1.1-0.8-1.9-1.7-1.8c-0.5,0.1-1,0.4-1.2,0.8C150.5-134.6,150.5-133.8,151-133.8z
			"/>
		<path class="st1" d="M197.9-121.4c0.1,0.1,0.3,0.3,0.3,0.4H195c-0.8-1-1.2-2.3-1.1-3.6c0.1-1.9,1.6-3.4,3.5-3.4
			c2.9-0.1,8.4,4.2,4.6,6.8c-1.3,0.9-2.5-1.2-1.2-2.1c0.4-0.3-1.4-1.6-1.5-1.6c-0.6-0.5-1.5-0.7-2.3-0.5
			C195.1-124.6,197.1-122.1,197.9-121.4z"/>
		<path class="st1" d="M184.7-141.3c-1.5,0.2-1.5-2.2,0-2.4s3.6-0.1,4.6,1.1c0.8,1.1,0.8,2.7-0.1,3.8c-1.4,1.9-4.1,2.3-6,1
			c-0.4-0.3-0.8-0.7-1.1-1.2c-0.9-1.3,1.2-2.5,2.1-1.2c0.6,0.8,1.7,1.1,2.5,0.5c0.1-0.1,0.2-0.2,0.3-0.3
			C188.4-141.6,185.6-141.4,184.7-141.3z"/>
		<path class="st1" d="M167.5-162.1c1.9-1.1,4.3-1,6.2,0.2c1.9,1.2,2.7,3.4,1.2,5.3c-1,1.2-2.7-0.5-1.7-1.7c0.8-1-1.7-2-2.2-2
			c-1-0.2-2,0.1-2.7,0.8c-1.4,1.4-0.8,3.9,1.3,3.9c0.7,0,1.2,0.5,1.2,1.2c0,0.7-0.5,1.2-1.2,1.2
			C164.7-153.4,163.6-159.7,167.5-162.1z"/>
		<path class="st1" d="M181.2-156.3c-0.9-1.2,1.2-2.4,2.1-1.2c0.7,0.8,1.9,0.9,2.8,0.3c0.4-0.3,0.8-0.7,1-1.1
			c0.5-0.8-0.2-0.4-0.7-0.1c-1.4,0.7-2.6-1.4-1.2-2.1s3.1-1.1,4.2,0.3c0.9,1.2,0.2,2.8-0.7,3.9c-1.5,2.1-4.5,2.5-6.5,1
			C181.8-155.7,181.5-156,181.2-156.3z"/>
		<path class="st1" d="M207.7-144.1c-2.2-1.9-1.1-5.6,1.4-6.4s7,1.2,5.8,4.5c-0.5,1.5-2.8,0.8-2.3-0.6c0.5-1.3-2-1.9-2.9-1.5
			c-0.7,0.3-1.1,1.1-0.8,1.8c0.1,0.2,0.2,0.4,0.4,0.5C210.6-144.8,208.9-143.1,207.7-144.1z"/>
		<path class="st1" d="M218.7-134.6l-0.8,0.1c-0.5,0-0.9-0.3-1.1-0.7c-0.2,0.2-0.4,0.4-0.4,0.7c-0.2,0.6-0.8,1-1.5,0.9
			c-0.6-0.2-1-0.8-0.8-1.5c0.3-1.7,2-2.8,3.7-2.5c0.7,0.1,1.3,0.5,1.8,1c0.5,0.5,0.4,1.3-0.1,1.7C219.3-134.7,219-134.6,218.7-134.6
			z"/>
		<path class="st1" d="M142.4-159.6c-1.8,0.4-0.8,2.1,0.1,2.9c1.2,1-0.5,2.7-1.7,1.7c-2.5-2-2.6-6.1,0.9-7c2.4-0.6,5,0.8,5.6,3.3
			c0.2,0.8,0.2,1.5,0,2.3c-0.2,0.6-0.9,1-1.5,0.8c-0.6-0.2-0.9-0.8-0.8-1.4c0.3-1.1-0.4-2.3-1.5-2.6
			C143.1-159.7,142.7-159.7,142.4-159.6z"/>
		<path class="st1" d="M154.7-147.4c-1.7,0.8-3.9,0.3-4.6-1.6c-0.6-1.5,1.8-2.1,2.3-0.6c0.1,0.2,0.7,0.2,0.8,0.1
			c0.2,0,0.4-0.1,0.6-0.2c-0.6-0.4-0.7-1.1-0.3-1.7c0.3-0.4,0.8-0.6,1.3-0.5c1,0.2,1.7,1.2,1.6,2.2
			C156.4-148.7,155.7-147.8,154.7-147.4z"/>
		<path class="st1" d="M163.7-170.2c1.2,1-0.6,2.7-1.7,1.7c-1.5-1.3-2.8-2.9-2.8-5c0-1.8,1.2-3.3,2.9-3.7c3.6-0.9,7.9,3.2,5,6.5
			c-1,1.2-2.7-0.5-1.7-1.7c1.3-1.5-2.2-3.3-3.4-2.1C160.6-173.2,162.7-171.1,163.7-170.2z"/>
		<path class="st1" d="M147.5-183.3c-0.5-0.5-4-2.8-4.5-1.3s-2.8,0.8-2.3-0.6c1.5-4.6,9.7-0.9,10,2.8c0.4,4.8-9.2,5.2-8.6,0.5
			c0.2-1.5,2.6-0.9,2.3,0.6c0,0.2,2.3,0.2,2.6,0.1c0.5,0,0.9-0.3,1.1-0.7C148.4-182.5,147.9-182.8,147.5-183.3z"/>
		<path class="st1" d="M131.1-198.7c1.5-0.4,3.4-0.1,4.3,1.3c0.8,1.3,0.4,3-0.8,3.8c0,0,0,0,0,0c-1.4,0.7-2.6-1.4-1.2-2.1
			c0.1-0.1,0.1-0.3,0-0.5c-0.4-0.4-1.3-0.2-1.8-0.1c-1.6,0.5-0.8,1.9,0.4,2.3c1.4,0.5,0.8,2.9-0.6,2.3c-1.6-0.4-2.8-1.8-3.1-3.5
			C128.1-196.9,129.4-198.4,131.1-198.7z"/>
		<path class="st1" d="M152.6-200.6c1.5,0,2.9,0.9,3.5,2.3c0.5,1.3,0,2.9-1.2,3.6c-0.6,0.3-1.3,0.1-1.7-0.4s-0.1-1.3,0.4-1.7l0,0
			c1-0.6-0.9-1.4-1.4-1.4c-1.4,0.1-0.2,2,0.4,2.4c1.2,1-0.5,2.7-1.7,1.7c-1.2-1-1.8-2.5-1.7-4C149.5-199.7,151-200.8,152.6-200.6
			C152.6-200.6,152.6-200.6,152.6-200.6z"/>
		<path class="st1" d="M182.8-184.1c0.8,1.1,0.6,2.6-0.5,3.4c-0.4,0.3-0.9,0.5-1.4,0.5c-1.5,0-1.5-2.2-0.1-2.4l0,0
			c-0.1-0.1-0.2-0.3-0.3-0.4c-0.2-0.1-0.3-0.2-0.5-0.3c-0.5-0.2-1-0.2-1.4,0c-0.5,0.3-0.8,1.4-0.1,1.7c0.6,0.2,1,0.8,0.9,1.5
			c-0.2,0.6-0.8,1-1.5,0.8c-1.7-0.8-2.6-2.8-1.8-4.5c0.5-1.1,1.4-1.8,2.6-2C180.2-186.1,181.9-185.4,182.8-184.1z"/>
		<path class="st1" d="M194.4-172c0.6-0.3,1.3-0.1,1.6,0.5c0.2,0.3,0.2,0.6,0.1,0.9c0,0,0,0.1,0,0.1l0.3,0.3
			c0.2,0.3,0.5,0.5,0.9,0.8c0.6,0.5,1.6,0.4,2.1-0.2c0.6-0.8,0.8-3-0.2-3.5c-1.4-0.7-0.1-2.8,1.2-2.1c2.8,1.5,2.3,6.9-0.5,8.2
			c-1.7,0.6-3.5,0.2-4.8-1C194.1-169.1,192.7-170.9,194.4-172z"/>
		<path class="st1" d="M219.6-164.1c0.3,1.6-0.7,3.2-2.2,3.6c-0.7,0.1-1.3-0.3-1.4-0.9c-0.1-0.6,0.2-1.2,0.8-1.4
			c1.2-0.3,0.1-1.8-1-1.3c-1.6,0.7-0.9,2.8-0.1,3.8c1,1.2-0.7,2.9-1.7,1.7c-1.3-1.4-1.8-3.4-1.3-5.2c0.5-1.6,2-2.7,3.7-2.8
			C217.9-166.7,219.2-165.6,219.6-164.1z"/>
		<path class="st1" d="M220.1-124.7c-0.9-1.4-0.5-3.3,1-4.2c0.3-0.2,0.6-0.3,0.9-0.4c1.4-0.3,2.8,0.7,3,2.1c0.1,0.5,0,1.1-0.2,1.6
			c-0.3,0.6-1.1,0.8-1.6,0.5c-0.6-0.3-0.8-1.1-0.5-1.6l0,0l0,0c0.1,0.1-0.1-0.2,0-0.1c-0.1-0.2-0.1-0.1,0,0c-0.1,0-0.2,0-0.2,0
			c-0.1,0.1-0.2,0.2-0.3,0.3c-0.1,0.2,0,0.5,0.1,0.7C222.9-124.6,220.8-123.3,220.1-124.7z"/>
		<path class="st1" d="M228.1-145.9c0.1-0.2,0.3-0.3,0.5-0.3c0.2,0.1,0.3,0.3,0.3,0.5c0,0.2,0,0.3,0,0.5h-0.1
			c-0.3,0.1-0.6,0-0.7-0.3C228.1-145.7,228.1-145.8,228.1-145.9L228.1-145.9z M230.6-144.3c0.3-0.1,0.6-0.4,0.6-0.8
			c0.3-1.4-0.4-2.8-1.7-3.4c-1.3-0.5-2.7,0-3.4,1.1c-0.7,1.1-0.6,2.6,0.4,3.6c1,0.9,2.4,1.1,3.6,0.6
			C230.5-143.4,230.7-143.8,230.6-144.3L230.6-144.3z"/>
		<path class="st1" d="M174.7-129.7c0.7-0.1,1.3,0.3,1.4,0.9c0.1,0.6-0.2,1.2-0.8,1.4c-2.1,0.7-3.8-1.9-2.8-3.7
			c1.3-2.3,4.1-1.7,6-0.8c0.6,0.3,0.8,1.1,0.4,1.7c-0.3,0.6-1.1,0.7-1.6,0.4c-0.7-0.4-1.5-0.6-2.3-0.4
			C174.9-130.1,174.5-129.6,174.7-129.7z"/>
		<path class="st1" d="M166.9-145.7c0-0.7,0.5-1.2,1.2-1.2c1-0.2,2.1,0,3,0.4c0.8,0.5,1.3,1.3,1.4,2.2c0.1,0.9-0.3,1.7-1.1,2.2
			c-1.1,0.5-2.3,0.3-3.2-0.5c-0.6-0.4-0.7-1.1-0.4-1.6c0.1-0.1,0.1-0.2,0.2-0.2C167.4-144.5,166.9-145,166.9-145.7z"/>
		<path class="st1" d="M123.7-160.1c0.2-0.6,0.8-1,1.5-0.8c0.6,0.3,1.3,0.3,1.9,0h0.1c-0.3-0.1-0.5-0.1-0.8-0.2
			c-1.6-0.1-1.6-2.5,0-2.4c1,0,1.9,0.3,2.7,0.9c0.7,0.7,0.9,1.8,0.5,2.7c-0.9,1.6-3.3,2-4.9,1.4
			C123.9-158.7,123.5-159.4,123.7-160.1L123.7-160.1z"/>
		<path class="st1" d="M174.7-214.6c1.6-1.2,3.8-0.9,4.9,0.7c0.5,0.7,0.8,1.5,0.7,2.3c-0.1,1.5-2.5,1.6-2.4,0c0.1-1-0.9-1.8-1.8-1.1
			c-0.5,0.5-0.6,1.2-0.1,1.8c0.2,0.2,0.4,0.3,0.6,0.4c1.5,0.5,0.9,2.8-0.6,2.3c-2-0.5-3.1-2.6-2.6-4.5
			C173.7-213.4,174.1-214.1,174.7-214.6z"/>
		<path class="st1" d="M191.5-194.5c-1,1.1-2.8-0.6-1.7-1.7c-0.2,0.2-0.3,0-0.6-0.1c-0.3-0.1-0.5-0.1-0.8-0.1
			c-0.5-0.1-1,0.1-1.4,0.4c-1.1,1.2,1.4,2,2.1,2.1c1.5,0.3,0.9,2.6-0.6,2.3c-1.7-0.2-3.2-1.2-3.8-2.8c-0.5-1.5,0.1-3.2,1.6-3.9
			c1.4-0.6,3-0.6,4.4,0c1.2,0.5,1.9,1.8,1.4,3.1C191.8-195,191.7-194.7,191.5-194.5z"/>
		<path class="st1" d="M214-188.9c-0.6,1-1.5,1.7-2.6,1.9c-2.2,0.5-4.5-0.7-5.3-2.9c-0.6-1.4,1.7-2.1,2.3-0.6c0.4,1,1.5,1.5,2.5,1.1
			c0.1,0,0.2-0.1,0.3-0.1c-0.5-0.4-0.6-1.2-0.1-1.7c0.4-0.4,1-0.5,1.5-0.3C213.4-191.1,214.4-189.9,214-188.9z"/>
		<path class="st1" d="M220.2-206.2c0.7-0.6,1.6-0.8,2.5-0.3c0.4,0.2,2.3,1.7,1,2c-0.3,0.1-0.5,0.2-0.7,0.5c-0.4-0.2-1-0.1-1.3,0.2
			c-0.6,0.4-1.3,0.3-1.8-0.3C219.5-204.8,219.7-205.6,220.2-206.2L220.2-206.2z M219-208.3c-1.8,1.3-2.3,3.9-0.9,5.7c0,0,0,0,0,0
			c1.3,1.6,3.7,1.8,5.3,0.4c0,0,0,0,0,0c0,0,0.1,0,0.1-0.1c0.3,0.1,0.6,0.2,0.8,0.1c2.7-0.6,2.6-3.8,1-5.5
			C223.6-209.4,221-209.7,219-208.3z"/>
		<path class="st1" d="M217.2-221.1c-0.8,0.1-1-0.8-0.2-1.1c0.5-0.2,1.7,0.5,1.4,0.9c-0.2,0.2-0.3,0.4-0.3,0.6
			C217.8-221,217.5-221.1,217.2-221.1L217.2-221.1z M214.1-220.9c0.3,1.4,1.6,2.4,3.1,2.3c0.6,0,1.1-0.4,1.2-1
			c0.4,0.5,1.1,0.5,1.6,0c0,0,0,0,0,0c1-1.1,0.9-2.8-0.1-3.9c-1-1.1-2.6-1.5-4-0.9C214.6-223.8,213.9-222.3,214.1-220.9z"/>
		<path class="st1" d="M154.5-228.6c0.2,1.6-0.9,3-2.5,3.2c-0.3,0-0.7,0-1,0c-0.6-0.2-1-0.9-0.8-1.5c0.2-0.6,0.8-0.9,1.4-0.8
			c0.8,0.2,0.3-1,0-1.2c-0.6-0.4-1.3-0.4-2-0.2c-0.7,0.1-1.3,0.6-1.5,1.2c-0.2,0.6,0,1.2,0.6,1.6c1.4,0.6,0.8,2.9-0.6,2.3
			c-1.8-0.7-2.8-2.7-2.2-4.5c0.7-1.9,2.5-3.2,4.6-3.1C152.2-231.7,154.3-230.6,154.5-228.6z"/>
		<path class="st1" d="M137.1-220.3c1.7,0.2,3.1,1.4,3.4,3.1c0.2,1.6-0.8,3.1-2.3,3.5c-1.5,0.3-2.2-2-0.6-2.3c0.4,0,0.7-0.4,0.6-0.8
			c0,0,0-0.1,0-0.1c-0.2-0.6-0.8-0.9-1.4-1c-0.6-0.1-1.1,0.1-1.5,0.4c-0.2,0.3-0.2,0.7,0.1,0.9c0,0,0,0,0,0c0.6,0.3,0.8,1.1,0.4,1.7
			s-1.1,0.8-1.7,0.4c-1.3-0.8-1.8-2.5-1.2-3.9C133.8-219.8,135.5-220.6,137.1-220.3z"/>
		<path class="st1" d="M224.5-175.9c-0.7-1.3-0.2-3,1.1-3.7c2.1-1.2,4.8-0.4,5.9,1.7c0.1,0.2,0.2,0.4,0.3,0.7
			c0.5,1.5-1.8,2.1-2.3,0.6c-0.3-0.8-1.2-1.3-2.1-1.2c-0.3,0-0.9,0.2-0.9,0.6c0,0.7,1.6,0.6,2,0.6c0.7,0,1.2,0.5,1.2,1.2
			c0,0.7-0.5,1.2-1.2,1.2C227.1-174.1,225.4-174.4,224.5-175.9z"/>
		<path class="st1" d="M184.3-223.3c0.7-0.6,1.7-0.7,2.5-0.2c0.8,0.5,1.3,1.3,1.3,2.3c0,0.7-0.6,1.2-1.2,1.2h-0.2
			c-0.2,0.2-0.4,0.3-0.6,0.4c-0.9,0.3-1.9-0.2-2.4-1C183.2-221.5,183.5-222.7,184.3-223.3z"/>
		<path class="st1" d="M158.2-213.9c0.9,1.3-1.2,2.5-2.1,1.2c-0.4-0.6-1.3-1.4-2-1.1c-0.3,0.1-0.8,0.7-0.6,1c1,1.2-0.7,2.9-1.7,1.7
			c-1.1-1.4-0.9-3.3,0.5-4.4c0.2-0.1,0.3-0.2,0.5-0.3C154.8-217,157-215.6,158.2-213.9z"/>
		<path class="st1" d="M166.3-200.8c0.9,0,1.9,0.3,2.6,1c0.7,0.7,0.8,1.8,0.4,2.7c-0.3,0.6-1.1,0.8-1.6,0.4
			c-0.6-0.3-0.8-1.1-0.4-1.6c-0.1,0.3-0.2,0.1-0.5,0h-0.4c0,0.2,0,0.4-0.2,0.6c-0.3,0.6-1.1,0.8-1.6,0.4c-0.8-0.5-1.1-1.6-0.6-2.4
			C164.4-200.5,165.4-200.9,166.3-200.8z"/>
		<path class="st1" d="M131.6-175.3c0,0.7-0.5,1.2-1.2,1.2c-0.7,0-1.2-0.5-1.2-1.2c0-0.2-0.1-0.5-0.2-0.7c-0.1,0.2-0.2,0.3-0.3,0.4
			c-0.7,0.7-1.9,0.7-2.5-0.1c-0.1-0.1-0.2-0.2-0.3-0.4c-0.5-1-0.1-2.2,0.9-2.7c0.1-0.1,0.2-0.1,0.3-0.1
			C129.3-179.6,131.6-177.6,131.6-175.3z"/>
		<path class="st1" d="M128.1-121.2c0.2,0.1,0.3,0.2,0.4,0.3h-3.1c-0.5-1.5-0.1-3.1,1.2-4.1c2.7-2.1,6-0.4,7.9,2
			c0.4,0.6,0.3,1.4-0.3,1.9c-0.1,0.1-0.3,0.2-0.5,0.2h-0.4c-0.2-0.1-0.4-0.2-0.6-0.4c-0.9-1.1-2-2.3-3.5-2.2c-0.6,0-1.2,0.3-1.6,0.9
			C127.4-122.1,127.6-121.5,128.1-121.2z"/>
		<path class="st1" d="M122-230.7c1.5-0.1,3,0.3,4.2,1.1c1.1,0.8,1.6,2.3,1.2,3.6c-0.5,1.2-1.5,2.1-2.8,2.4
			c-1.3,0.2-2.6-0.1-3.7-0.7v-2.7c0.2,0,0.3,0.1,0.4,0.2c0.8,0.5,3.2,1.7,3.8,0.2s-2.3-1.6-3.1-1.6c-0.5,0-0.9-0.3-1.1-0.8v-0.9
			C121.1-230.4,121.5-230.7,122-230.7z"/>
		<path class="st1" d="M168.9-237.3c2.8-0.8,5,1.9,4.8,4.5c-0.1,1.5-2.6,1.6-2.4,0c0.1-0.9-0.2-2.3-1.4-2.2c-0.7,0-1.1,0.8-0.4,1.2
			c1.4,0.6,0.2,2.7-1.2,2.1C165.8-232.9,166.4-236.6,168.9-237.3z"/>
		<path class="st1" d="M160.6-241.5c-0.4,1.1-1.5,1.8-2.6,1.8c-1.6,0.1-3.1-0.8-3.8-2.2h6.5C160.6-241.7,160.6-241.6,160.6-241.5z"
			/>
		<path class="st1" d="M165.3-223.8c1.6-0.2,3,0.8,3.3,2.4c0.1,0.3,0,0.7,0,1c-0.4,1.5-2.7,0.9-2.3-0.6c0.1-0.2-0.3-0.3-0.5-0.3
			c-0.3,0-0.5,0-0.7,0.1l0,0c0,0.6-0.4,1.2-1.1,1.2c-0.2,0-0.5,0-0.7-0.2c-0.8-0.5-1-1.5-0.5-2.2c0-0.1,0.1-0.1,0.1-0.2
			C163.5-223.4,164.4-223.8,165.3-223.8z"/>
		<path class="st1" d="M223.3-236.3c2.9-2.6,7.3,0.6,6.6,4.1c-0.3,1.5-2.6,0.9-2.3-0.6c0.1-1-0.7-1.8-1.7-1.9c-0.2,0-0.4,0-0.6,0.1
			c-0.9,0.4-0.8,2,0.1,1.5c1.4-0.8,2.6,1.3,1.2,2.1c-1.3,0.8-3.1,0.4-3.9-0.9C221.8-233.4,222.1-235.2,223.3-236.3z"/>
		<path class="st1" d="M236-212c1.9-0.9,4.1-0.7,5.8,0.5v4.9c-0.5-0.4-0.5-1.2-0.1-1.6c0,0,0,0,0.1-0.1c0.2-0.2-1.8-1.5-2.1-1.6
			c-0.9-0.4-1.8-0.3-2.6,0.1c-0.8,0.4-1.2,1.3-1,2.2c0.4,1.2,1.7,1.1,2.7,1.1c0.7,0.1,1.2,0.6,1.1,1.3c-0.1,0.6-0.5,1-1.1,1.1
			c-2.2,0-4.4-0.5-5-2.8C233.3-208.9,234.2-211,236-212z"/>
		<path class="st1" d="M232.2-186.1c-1.7-1.9-1.6-5.2,1.1-6.2c2.3-0.9,5,1.4,4,3.8c-0.6,1.4-2.9,0.8-2.3-0.6
			c0.2-0.3,0.1-0.7-0.2-0.9c-0.2-0.1-0.5-0.1-0.8,0.1c-0.6,0.4-0.8,1.3-0.3,1.9c0.1,0.1,0.1,0.2,0.2,0.2
			C235-186.6,233.3-184.9,232.2-186.1z"/>
		<path class="st1" d="M200.1-223.6c-0.7-0.2-1.3-0.7-1.7-1.3c0.5-0.5,1.2-0.7,1.9-0.7c0.7,0,2.3,0.4,2.1,1.3
			S200.8-223.4,200.1-223.6z M195.8-224.7c0.7,1.9,2.3,3.3,4.4,3.6c1.8,0.3,4.1-0.6,4.6-2.5c0.6-2.1-1.3-3.8-3.2-4.2
			c-1.9-0.4-3.9,0.2-5.2,1.7C196-225.8,195.8-225.3,195.8-224.7z"/>
		<path class="st1" d="M187.4-238.9c1.5,0.6,2.2,2.2,1.6,3.7c-0.3,0.8-0.9,1.4-1.7,1.7c-1.5,0.5-2.1-1.8-0.6-2.3
			c0.1-0.1,0.2-0.4,0.1-0.5c-0.1-0.2-0.4-0.4-0.6-0.3c-1-0.1-1.4,1-1.4,1.8c-0.1,0.7-0.6,1.2-1.3,1.1c-0.6-0.1-1-0.5-1.1-1.1
			C182.5-237.5,184.7-240,187.4-238.9z"/>
		<path class="st1" d="M210.6-232.4c-0.3-0.1-0.5-0.3-0.7-0.5c-0.4,0.4-1.1,0.6-1.7,0.4c-0.6-0.2-1-0.7-1.2-1.3
			c-0.2-1.1,0.4-2.2,1.4-2.7c1-0.5,2.1-0.3,2.9,0.4c0.7,0.7,1,1.8,0.7,2.8C211.9-232.6,211.3-232.3,210.6-232.4z"/>
		<path class="st1" d="M235.9-159.5c-0.4,0-2.8-0.4-1.9-1.1c0.6-0.3,1.3-0.4,1.9-0.3c0.2,0,1,0.4,0.9,0.8c-0.2,0.3-0.2,0.7-0.1,1.1
			C236.5-159.4,236.2-159.5,235.9-159.5L235.9-159.5z M231.8-158.9c0.9,1.4,2.6,1.7,4.1,1.8c0.6,0,1.1-0.5,1.1-1.1
			c0-0.2,0-0.4-0.1-0.6c0.1,0.1,0.2,0.2,0.3,0.2c0.6,0.3,1.3,0.1,1.6-0.4c0.7-1.5,0.1-3.2-1.3-3.9c-1.5-0.7-3.3-0.6-4.8,0.1
			c-1.3,0.7-1.8,2.3-1.1,3.6C231.7-159.1,231.7-159,231.8-158.9z"/>
		<path class="st1" d="M237.2-132.3c-1.4,0.6-2.6-1.5-1.2-2.1c1.3-0.7,3-0.1,3.6,1.2c0.6,1.4,0.1,3.1-1.3,3.9
			c-1.5,0.8-3.4,0.8-4.9-0.2c-1.3-0.7-2.1-2.3-0.9-3.6c0.5-0.5,1.2-0.5,1.7-0.1c0.4,0.4,0.5,0.9,0.3,1.4c0.1,0,0.1,0.1,0.1,0.1
			c0.2,0.1,0.5,0.2,0.7,0.3c0.4,0.2,0.9,0.2,1.3,0.1c0.3-0.1,0.7-0.3,0.7-0.6C237.5-131.9,237.5-132.4,237.2-132.3z"/>
		<path class="st1" d="M237.2-122.4c1.5-0.8,3.3,0,4.4,1.1c0.1,0.1,0.2,0.2,0.2,0.3h-5.9C236.1-121.6,236.6-122.1,237.2-122.4z"/>
		<path class="st1" d="M126.5-147.1c0.1,0.1,0.2,0.2,0.3,0.3l-0.2-0.1c-0.2,0-0.3-0.2-0.3-0.3v-0.2v-0.2c0,0.1,0-0.1,0-0.1l0,0
			C126.3-147.4,126.4-147.3,126.5-147.1L126.5-147.1z M127.1-146.7c0.3,0.2,0.8,0.2,1.1,0l0.6-0.3c0.6-0.3,0.8-1.1,0.4-1.6
			c-0.7-1.4-2.5-1.9-3.9-1.2c-1.4,0.7-1.9,2.5-1.2,3.9c0.4,0.7,1,1.2,1.8,1.4c0.6,0.2,1.3-0.1,1.5-0.8
			C127.7-145.8,127.5-146.3,127.1-146.7L127.1-146.7z"/>
		<path class="st1" d="M166.2-184.9c-0.2,0.6-0.8,1-1.5,0.8c-1-0.3-1.6-1.3-1.5-2.3c0.2-1.2,1.1-2.1,2.4-2.2c2.1-0.3,4.6,1.8,3.4,4
			c-0.8,1.4-2.9,0.1-2.1-1.2c0,0.1,0,0-0.2-0.1c-0.2-0.1-0.4-0.2-0.6-0.3c-0.1,0-0.3,0-0.4,0.1C166.1-185.9,166.3-185.4,166.2-184.9
			z"/>
		<path class="st1" d="M199.1-155.4h-0.1c-0.3,0.6-1,0.8-1.6,0.5c-0.2-0.1-0.4-0.3-0.5-0.4c-0.7-1.4-0.2-3,1.1-3.8
			c0.4-0.2,0.8-0.3,1.3-0.3c1.2,0,2.2,0.9,2.3,2.1c0,1.1-0.9,2-2,2C199.3-155.3,199.2-155.3,199.1-155.4z"/>
		<path class="st1" d="M185.9-169.1c-0.2,0.6-0.8,1-1.5,0.8l-0.2-0.1l-0.1,0.1c-1.1,0.3-2.2-0.2-2.6-1.3c-0.4-1,0-2.2,1-2.7
			c0.9-0.5,2-0.3,2.8,0.4C186-171.1,186.2-170,185.9-169.1z"/>
		<path class="st1" d="M194.4-189c2.6-1.8,6,0.9,4.4,3.8c-0.8,1.4-2.8,0.1-2.1-1.2c0.4-0.8-0.8-0.9-1.2-0.3c-0.6,1,0.4,1.9,1.2,2.1
			c1.5,0.3,0.9,2.7-0.6,2.3C193.2-182.9,191.6-187.1,194.4-189z"/>
		<path class="st1" d="M211.4-176.1L211.4-176.1L211.4-176.1L211.4-176.1L211.4-176.1L211.4-176.1L211.4-176.1z M213.8-175.3
			c0.4-2-1.6-4.2-3.7-3.2c-1.2,0.7-1.7,2.2-1,3.4c0.2,0.3,0.4,0.6,0.8,0.9c0.6,0.3,1.3,0.1,1.7-0.4c0-0.1,0.1-0.2,0.1-0.3
			c0.2,0.2,0.4,0.4,0.6,0.5C212.9-174.3,213.6-174.6,213.8-175.3L213.8-175.3z"/>
		<polygon class="st1" points="211.2,-176.2 211.2,-176.2 211.2,-176.2 211.2,-176.2 		"/>
		<polygon class="st1" points="211.4,-176.1 211.4,-176 211.4,-176 		"/>
		<path class="st1" d="M211.2-176.2"/>
		<path class="st1" d="M211.4-176.1L211.4-176.1L211.4-176.1L211.4-176.1z"/>
		<path class="st1" d="M199.3-136.7c1.5-0.3,2.2,2,0.6,2.3c-1.7,0.5-3.6-0.5-4.1-2.3s0.5-3.6,2.3-4.1c1.5-0.4,3,0.2,3.8,1.6
			c0.3,0.6,0,1.3-0.6,1.6c-0.5,0.3-1.2,0.1-1.5-0.4c-0.2-0.4-0.7-0.7-1.2-0.5c-0.4,0.2-0.7,0.7-0.5,1.2
			C198.4-136.8,198.8-136.5,199.3-136.7L199.3-136.7z"/>
		<path class="st1" d="M140.1-236.6c1.5,1,1.8,3,0.8,4.5c-0.2,0.3-0.5,0.6-0.9,0.8c-2.3,1.3-5-1.1-4.5-3.6c0.4-1.5,2.7-0.9,2.3,0.6
			c-0.1,0.5,0.6,1,0.9,0.8c0.3-0.3,0.3-0.8,0.1-1.1C137.6-235.4,138.8-237.5,140.1-236.6z"/>
		<path class="st1" d="M144.9-203.4c0,0.7-0.5,1.2-1.2,1.2c-0.7,0-1.2-0.5-1.2-1.2c0.1-0.6-0.4-1.4-1.1-1.1
			c-0.4,0.3-0.6,0.9-0.3,1.3c0.8,1.3-1.3,2.5-2.1,1.2c-0.9-1.6-0.4-3.7,1.2-4.6c0.2-0.1,0.3-0.2,0.5-0.2c1.8-0.5,3.6,0.6,4.1,2.3
			C144.9-204.1,144.9-203.7,144.9-203.4z"/>
		<path class="st1" d="M141.5-121c-0.2-0.5-0.2-1.1-0.1-1.6c0.3-1,1.1-1.8,2.1-2c2.1-0.6,4.3,0.3,5.4,2.1c0.4,0.4,0.3,1.1-0.1,1.4
			c-0.1,0.1-0.1,0.1-0.2,0.1h-1.4c-0.1-0.1-0.2-0.2-0.3-0.3c-0.5-0.7-1.3-1.1-2.2-1c-0.3,0-0.8,0.1-0.9,0.4s0.2,0.7,0.4,1L141.5-121
			z"/>
		<path class="st1" d="M147.4-170.3c1.4-1.6,3.6-1.1,5.2-0.1c1.3,0.8,0.1,2.9-1.2,2.1c-0.5-0.4-1.1-0.7-1.8-0.6
			c-0.2,0.1-0.3,0.2-0.4,0.2h-0.1h0.1l0,0l0,0c1.4,0.2,1.4,2.5-0.1,2.4c-1.3-0.1-2.4-1.3-2.3-2.6
			C146.8-169.4,147.1-169.9,147.4-170.3z"/>
		<path class="st1" d="M149.2-168.7L149.2-168.7z"/>
		<path class="st1" d="M212.9-206.6c0.9,2.3,0.3,5.2-2.2,6.2c-1.7,0.7-3.7-0.1-4.4-1.8c-0.2-0.5-0.3-0.9-0.3-1.4
			c0.1-1.6,2.6-1.6,2.4,0c-0.1,1.1,1,1.3,1.8,0.7c0.9-0.8,0.7-2.1,0.3-3.1C210-207.4,212.4-208.1,212.9-206.6z"/>
		<path class="st1" d="M223.5-190.5c1.6-0.1,1.6,2.3,0,2.4c-2.4,0.1-3.3-3-1.6-4.4c1.9-1.6,4.5-0.2,5.4,1.8c0.3,0.6,0.1,1.3-0.4,1.6
			c-0.6,0.3-1.3,0.1-1.7-0.4c-0.2-0.5-0.7-1.4-1.4-1.3c-0.2,0-0.3,0.1-0.4,0.2C223.4-190.5,223.5-190.5,223.5-190.5
			C223.5-190.5,223.5-190.5,223.5-190.5z"/>
		<path class="st1" d="M241.5-173.2c0.1,0,0.2,0.1,0.3,0.1v2.4c-0.7,0-1.3-0.2-1.9-0.6c-0.8-0.5-1.3-1.5-1.2-2.4
			c0.2-1.7,1.7-2.2,3.1-2.1v2.4c-0.2,0-0.3,0-0.5,0h-0.2l0,0C241.3-173.3,241.3-173.3,241.5-173.2z"/>
		<path class="st1" d="M232.1-220.8c-0.3,0-0.4-0.2-0.3-0.4c0,0,0.1-0.1,0.1-0.1s0.2,0.2,0.2,0.2C232.1-221,232.1-220.9,232.1-220.8
			L232.1-220.8z M230-222.8c-0.8,0.9-0.9,2.2-0.3,3.2c0.7,1,1.9,1.4,3,1.2c0.5-0.1,0.9-0.7,0.9-1.2c0.4-0.1,0.7-0.4,0.8-0.8
			c0.3-1.2-0.3-2.4-1.4-2.9C232-224,230.8-223.7,230-222.8L230-222.8z"/>
		<path class="st1" d="M198.6-210.7c0.6,1.4-1.8,2.1-2.3,0.6c-0.5-1.2-2.4-1.9-3-0.4c-0.7,1.7,1.6,1.9,2.8,2c0.7,0,1.2,0.5,1.2,1.2
			c0,0.7-0.5,1.2-1.2,1.2c-1.6-0.1-3.4-0.2-4.6-1.6c-0.9-1.2-1-2.9-0.2-4.2C193.1-215.1,197.4-213.7,198.6-210.7z"/>
		<path class="st1" d="M122.6-206.6c-0.4,0.5-1.2,0.5-1.6,0c0,0,0,0,0,0v-4.9c0.2,0.1,0.3,0.2,0.4,0.3
			C122.8-210.2,124.1-208.1,122.6-206.6z"/>
		<path class="st1" d="M122-170.7c-0.3,0-0.7,0-1.1,0v-2.4c0.4,0,0.7,0,1.1,0C123.5-173.2,123.5-170.8,122-170.7z"/>
		<path class="st1" d="M121.4-173.4c-0.2,0-0.3-0.1-0.5-0.1v-2.4c0.4,0,0.8,0.1,1.2,0.1C123.6-175.4,122.9-173.1,121.4-173.4z"/>
		<path class="st1" d="M153.8-122.4c-0.1-1.6,2.3-1.6,2.4,0c0.1,0.7,0.8,1.3,1.6,1.2l0.2-0.1c-0.5-0.5-0.4-1.3,0.1-1.8
			c0.3-0.3,0.7-0.4,1.1-0.3c1.1,0.2,1.7,1.2,1.6,2.3h-6.5C153.9-121.4,153.8-121.9,153.8-122.4z"/>
	</g>
</pattern>
<pattern  y="151.1" width="12.5" height="12" patternUnits="userSpaceOnUse" id="xis" viewBox="0 -12 12.5 12" style="overflow:visible;">
	<g>
		<rect x="0" y="-12" class="st0" width="12.5" height="12"/>
		<rect y="-12" class="st0" width="12.5" height="12"/>
		<path d="M8.6-6l0.9,0.8l0.7,0.7c0.6,0.6,0.6,1.6,0,2.3C9.6-1.7,8.6-1.7,8-2.3L6.2-3.8l-1,0.9L4.5-2.3c-0.6,0.6-1.6,0.6-2.3,0
			c-0.6-0.6-0.6-1.6,0-2.3L3.9-6L3-6.8L2.3-7.4c-0.6-0.6-0.6-1.6,0-2.3c0.6-0.6,1.6-0.6,2.3,0l1.7,1.6l1-0.9L8-9.7
			c0.6-0.7,1.6-0.8,2.3-0.2c0.7,0.6,0.8,1.6,0.2,2.3c-0.1,0.1-0.1,0.1-0.2,0.2L8.6-6z"/>
	</g>
</pattern>
<g id="Layer_2_1_">
	<g id="Layer_7">
		<polygon class="st2" points="82,75.1 149,75 149,8 		"/>
		<polygon class="st3" points="108.2,62.9 140.6,62.9 140.6,30.5 		"/>
		<rect x="5" y="3.9" class="st4" width="37" height="71.1"/>
		<path class="st5" d="M5,75.1h69l-69,69C5,144.1,5,75.7,5,75.1z"/>
		<polygon class="st6" points="78,75.1 44,75.1 44,4 78.5,4 		"/>
		<polygon class="st6" points="78,75.1 149,4.1 78.5,4 		"/>
		<polygon class="st7" points="4.8,147 76.8,75.1 114,113.3 114,147.1 		"/>
		<pattern  id="SVGID_1_" xlink:href="#chetaish" patternTransform="matrix(1 0 0 -1 -115.5 -16146.2402)">
		</pattern>
		<polygon class="st8" points="4.8,147 76.8,75.1 114,113.3 114,147.1 		"/>
		<polygon class="st9" points="115,114.7 115.3,146.2 149.2,146.2 149,77.1 		"/>
		<pattern  id="SVGID_2_" xlink:href="#xis" patternTransform="matrix(1 0 0 -1 -53.03 -15755.8799)">
		</pattern>
		<polygon class="st10" points="115,114.7 115.3,146.2 149.2,146.2 149,77.1 		"/>
		<polygon class="st11" points="148,75 114.5,111.1 79.2,75 		"/>
		<pattern  id="SVGID_3_" xlink:href="#Small_Dots" patternTransform="matrix(1 0 0 -1 -18.3 -15750.1201)">
		</pattern>
		<polygon class="st12" points="148,75 114.5,111.1 79.2,75 		"/>
		<line class="st13" x1="5" y1="75.1" x2="149" y2="75.1"/>
		<line class="st13" x1="5" y1="147.1" x2="149" y2="3.1"/>
		<line class="st13" x1="114.2" y1="147.1" x2="114.2" y2="111.5"/>
		<line class="st13" x1="43" y1="75.1" x2="43" y2="3.1"/>
		<line class="st13" x1="149" y1="75.1" x2="113.9" y2="113.9"/>
		<line class="st13" x1="79.4" y1="76.3" x2="114.4" y2="115.2"/>
		<line class="st13" x1="2.5" y1="3.6" x2="152.5" y2="3.6"/>
		<line class="st13" x1="0" y1="147.6" x2="150" y2="147.6"/>
		<circle class="st14" cx="22.3" cy="41.1" r="14.8"/>
		<line class="st13" x1="42" y1="3.9" x2="95.1" y2="57"/>
		<line class="st13" x1="42" y1="22.5" x2="85.8" y2="66.3"/>
		<line class="st13" x1="42" y1="41.5" x2="75.4" y2="75"/>
		<line class="st13" x1="42" y1="58.8" x2="57.8" y2="74.7"/>
		<line class="st13" x1="103.9" y1="47.9" x2="60.1" y2="4.1"/>
		<line class="st13" x1="110.4" y1="37.1" x2="77" y2="3.6"/>
		<line class="st13" x1="121.4" y1="31.6" x2="93.4" y2="3.6"/>
		<line class="st13" x1="129.5" y1="22.5" x2="110.6" y2="3.6"/>
		<line class="st13" x1="137.8" y1="14.3" x2="128.3" y2="4.8"/>
		
			<rect x="14.5" y="88.1" transform="matrix(0.7426 -0.6698 0.6698 0.7426 -61.0941 45.5696)" class="st15" width="28.4" height="28.4"/>
		<line class="st16" x1="2.5" y1="151.1" x2="2.5" y2="0.1"/>
		<line class="st16" x1="149" y1="151.8" x2="149" y2="0.8"/>
	</g>
</g>
</svg>
